<?xml version="1.0" encoding="UTF-8" standalone="no"?>
<!DOCTYPE svg PUBLIC "-//W3C//DTD SVG 1.1//EN"
 "http://www.w3.org/Graphics/SVG/1.1/DTD/svg11.dtd">
<!-- Generated by graphviz version 2.38.0 (20140413.2041)
 -->
<!-- Title: controllers_diagram Pages: 1 -->
<svg width="1319pt" height="1239pt"
 viewBox="0.00 0.00 1318.87 1239.00" xmlns="http://www.w3.org/2000/svg" xmlns:xlink="http://www.w3.org/1999/xlink">
<g id="graph0" class="graph" transform="scale(1 1) rotate(0) translate(573.714 665.5)">
<title>controllers_diagram</title>
<polygon fill="white" stroke="none" points="-573.714,573.5 -573.714,-665.5 745.159,-665.5 745.159,573.5 -573.714,573.5"/>
<!-- _diagram_info -->
<g id="node1" class="node"><title>_diagram_info</title>
<text text-anchor="start" x="540.312" y="-591.1" font-family="Times,serif" font-size="13.00">Controllers diagram</text>
<text text-anchor="start" x="540.312" y="-578.1" font-family="Times,serif" font-size="13.00">Date: May 12 2015 &#45; 08:34</text>
<text text-anchor="start" x="540.312" y="-565.1" font-family="Times,serif" font-size="13.00">Migration version: 20150510134716</text>
<text text-anchor="start" x="540.312" y="-552.1" font-family="Times,serif" font-size="13.00">Generated by RailRoady 1.3.0</text>
<text text-anchor="start" x="540.312" y="-539.1" font-family="Times,serif" font-size="13.00">http://railroady.prestonlee.com</text>
</g>
<!-- Api::BaseController -->
<g id="node2" class="node"><title>Api::BaseController</title>
<path fill="none" stroke="black" d="M-291.969,-305C-291.969,-305 -118.031,-305 -118.031,-305 -112.031,-305 -106.031,-311 -106.031,-317 -106.031,-317 -106.031,-467 -106.031,-467 -106.031,-473 -112.031,-479 -118.031,-479 -118.031,-479 -291.969,-479 -291.969,-479 -297.969,-479 -303.969,-473 -303.969,-467 -303.969,-467 -303.969,-317 -303.969,-317 -303.969,-311 -297.969,-305 -291.969,-305"/>
<text text-anchor="middle" x="-205" y="-463.8" font-family="Times,serif" font-size="14.00">Api::BaseController</text>
<polyline fill="none" stroke="black" points="-303.969,-457 -106.031,-457 "/>
<text text-anchor="start" x="-295.969" y="-441.8" font-family="Times,serif" font-size="14.00">current_account</text>
<polyline fill="none" stroke="black" points="-303.969,-435 -106.031,-435 "/>
<polyline fill="none" stroke="black" points="-303.969,-411 -106.031,-411 "/>
<text text-anchor="start" x="-295.969" y="-395.8" font-family="Times,serif" font-size="14.00">_layout</text>
<text text-anchor="start" x="-295.969" y="-381.8" font-family="Times,serif" font-size="14.00">admin_authorization</text>
<text text-anchor="start" x="-295.969" y="-367.8" font-family="Times,serif" font-size="14.00">authenticate_apisync!</text>
<text text-anchor="start" x="-295.969" y="-353.8" font-family="Times,serif" font-size="14.00">is_apisync?</text>
<text text-anchor="start" x="-295.969" y="-339.8" font-family="Times,serif" font-size="14.00">require_account!</text>
<text text-anchor="start" x="-295.969" y="-325.8" font-family="Times,serif" font-size="14.00">set_current_account</text>
<text text-anchor="start" x="-295.969" y="-311.8" font-family="Times,serif" font-size="14.00">teachstone_admin_authorization</text>
</g>
<!-- Api::V1::AccountsController -->
<g id="node3" class="node"><title>Api::V1::AccountsController</title>
<path fill="none" stroke="black" d="M107.034,94C107.034,94 322.966,94 322.966,94 328.966,94 334.966,88 334.966,82 334.966,82 334.966,-82 334.966,-82 334.966,-88 328.966,-94 322.966,-94 322.966,-94 107.034,-94 107.034,-94 101.034,-94 95.0342,-88 95.0342,-82 95.0342,-82 95.0342,82 95.0342,82 95.0342,88 101.034,94 107.034,94"/>
<text text-anchor="middle" x="215" y="-78.8" font-family="Times,serif" font-size="14.00">Api::V1::AccountsController</text>
<polyline fill="none" stroke="black" points="95.0342,-72 334.966,-72 "/>
<text text-anchor="start" x="103.034" y="-56.8" font-family="Times,serif" font-size="14.00">choose</text>
<text text-anchor="start" x="103.034" y="-42.8" font-family="Times,serif" font-size="14.00">create</text>
<text text-anchor="start" x="103.034" y="-28.8" font-family="Times,serif" font-size="14.00">index</text>
<text text-anchor="start" x="103.034" y="-14.8" font-family="Times,serif" font-size="14.00">show</text>
<text text-anchor="start" x="103.034" y="-0.8" font-family="Times,serif" font-size="14.00">update</text>
<polyline fill="none" stroke="black" points="95.0342,6 334.966,6 "/>
<polyline fill="none" stroke="black" points="95.0342,30 334.966,30 "/>
<text text-anchor="start" x="103.034" y="45.2" font-family="Times,serif" font-size="14.00">_layout</text>
<text text-anchor="start" x="103.034" y="59.2" font-family="Times,serif" font-size="14.00">account_params</text>
<text text-anchor="start" x="103.034" y="73.2" font-family="Times,serif" font-size="14.00">set_account</text>
<text text-anchor="start" x="103.034" y="87.2" font-family="Times,serif" font-size="14.00">teachstone_or_valid_client_admin_auth</text>
</g>
<!-- Api::V1::AgeLevelsController -->
<g id="node4" class="node"><title>Api::V1::AgeLevelsController</title>
<path fill="none" stroke="black" d="M-519.928,-381C-519.928,-381 -356.072,-381 -356.072,-381 -350.072,-381 -344.072,-387 -344.072,-393 -344.072,-393 -344.072,-459 -344.072,-459 -344.072,-465 -350.072,-471 -356.072,-471 -356.072,-471 -519.928,-471 -519.928,-471 -525.928,-471 -531.928,-465 -531.928,-459 -531.928,-459 -531.928,-393 -531.928,-393 -531.928,-387 -525.928,-381 -519.928,-381"/>
<text text-anchor="middle" x="-438" y="-455.8" font-family="Times,serif" font-size="14.00">Api::V1::AgeLevelsController</text>
<polyline fill="none" stroke="black" points="-531.928,-449 -344.072,-449 "/>
<text text-anchor="start" x="-523.928" y="-433.8" font-family="Times,serif" font-size="14.00">index</text>
<polyline fill="none" stroke="black" points="-531.928,-427 -344.072,-427 "/>
<polyline fill="none" stroke="black" points="-531.928,-403 -344.072,-403 "/>
<text text-anchor="start" x="-523.928" y="-387.8" font-family="Times,serif" font-size="14.00">_layout</text>
</g>
<!-- Api::V1::CategoriesController -->
<g id="node5" class="node"><title>Api::V1::CategoriesController</title>
<path fill="none" stroke="black" d="M-519.542,246C-519.542,246 -356.458,246 -356.458,246 -350.458,246 -344.458,240 -344.458,234 -344.458,234 -344.458,168 -344.458,168 -344.458,162 -350.458,156 -356.458,156 -356.458,156 -519.542,156 -519.542,156 -525.542,156 -531.542,162 -531.542,168 -531.542,168 -531.542,234 -531.542,234 -531.542,240 -525.542,246 -519.542,246"/>
<text text-anchor="middle" x="-438" y="171.2" font-family="Times,serif" font-size="14.00">Api::V1::CategoriesController</text>
<polyline fill="none" stroke="black" points="-531.542,178 -344.458,178 "/>
<text text-anchor="start" x="-523.542" y="193.2" font-family="Times,serif" font-size="14.00">index</text>
<polyline fill="none" stroke="black" points="-531.542,200 -344.458,200 "/>
<polyline fill="none" stroke="black" points="-531.542,224 -344.458,224 "/>
<text text-anchor="start" x="-523.542" y="239.2" font-family="Times,serif" font-size="14.00">_layout</text>
</g>
<!-- Api::V1::Coaches::TeachersController -->
<g id="node6" class="node"><title>Api::V1::Coaches::TeachersController</title>
<path fill="none" stroke="black" d="M145.02,-134C145.02,-134 352.98,-134 352.98,-134 358.98,-134 364.98,-140 364.98,-146 364.98,-146 364.98,-308 364.98,-308 364.98,-314 358.98,-320 352.98,-320 352.98,-320 145.02,-320 145.02,-320 139.02,-320 133.02,-314 133.02,-308 133.02,-308 133.02,-146 133.02,-146 133.02,-140 139.02,-134 145.02,-134"/>
<text text-anchor="middle" x="249" y="-304.8" font-family="Times,serif" font-size="14.00">Api::V1::Coaches::TeachersController</text>
<polyline fill="none" stroke="black" points="133.02,-298 364.98,-298 "/>
<text text-anchor="start" x="141.02" y="-282.8" font-family="Times,serif" font-size="14.00">available_teachers</text>
<text text-anchor="start" x="141.02" y="-268.8" font-family="Times,serif" font-size="14.00">create</text>
<text text-anchor="start" x="141.02" y="-254.8" font-family="Times,serif" font-size="14.00">destroy</text>
<text text-anchor="start" x="141.02" y="-240.8" font-family="Times,serif" font-size="14.00">index</text>
<polyline fill="none" stroke="black" points="133.02,-234 364.98,-234 "/>
<text text-anchor="start" x="141.02" y="-218.8" font-family="Times,serif" font-size="14.00">current_coach</text>
<text text-anchor="start" x="141.02" y="-204.8" font-family="Times,serif" font-size="14.00">current_coach_teacher</text>
<text text-anchor="start" x="141.02" y="-190.8" font-family="Times,serif" font-size="14.00">ensure_teacher_is_valid</text>
<text text-anchor="start" x="141.02" y="-176.8" font-family="Times,serif" font-size="14.00">ensure_user_is_coach</text>
<polyline fill="none" stroke="black" points="133.02,-170 364.98,-170 "/>
<text text-anchor="start" x="141.02" y="-154.8" font-family="Times,serif" font-size="14.00">_layout</text>
<text text-anchor="start" x="141.02" y="-140.8" font-family="Times,serif" font-size="14.00">teacher_params</text>
</g>
<!-- Api::V1::CoachesController -->
<g id="node7" class="node"><title>Api::V1::CoachesController</title>
<path fill="none" stroke="black" d="M-254.321,-514C-254.321,-514 -103.679,-514 -103.679,-514 -97.6792,-514 -91.6792,-520 -91.6792,-526 -91.6792,-526 -91.6792,-606 -91.6792,-606 -91.6792,-612 -97.6792,-618 -103.679,-618 -103.679,-618 -254.321,-618 -254.321,-618 -260.321,-618 -266.321,-612 -266.321,-606 -266.321,-606 -266.321,-526 -266.321,-526 -266.321,-520 -260.321,-514 -254.321,-514"/>
<text text-anchor="middle" x="-179" y="-602.8" font-family="Times,serif" font-size="14.00">Api::V1::CoachesController</text>
<polyline fill="none" stroke="black" points="-266.321,-596 -91.6792,-596 "/>
<text text-anchor="start" x="-258.321" y="-580.8" font-family="Times,serif" font-size="14.00">index</text>
<polyline fill="none" stroke="black" points="-266.321,-574 -91.6792,-574 "/>
<polyline fill="none" stroke="black" points="-266.321,-550 -91.6792,-550 "/>
<text text-anchor="start" x="-258.321" y="-534.8" font-family="Times,serif" font-size="14.00">_layout</text>
<text text-anchor="start" x="-258.321" y="-520.8" font-family="Times,serif" font-size="14.00">authorize_access</text>
</g>
<!-- Api::V1::DimensionsController -->
<g id="node8" class="node"><title>Api::V1::DimensionsController</title>
<path fill="none" stroke="black" d="M-482.052,-514C-482.052,-514 -311.948,-514 -311.948,-514 -305.948,-514 -299.948,-520 -299.948,-526 -299.948,-526 -299.948,-592 -299.948,-592 -299.948,-598 -305.948,-604 -311.948,-604 -311.948,-604 -482.052,-604 -482.052,-604 -488.052,-604 -494.052,-598 -494.052,-592 -494.052,-592 -494.052,-526 -494.052,-526 -494.052,-520 -488.052,-514 -482.052,-514"/>
<text text-anchor="middle" x="-397" y="-588.8" font-family="Times,serif" font-size="14.00">Api::V1::DimensionsController</text>
<polyline fill="none" stroke="black" points="-494.052,-582 -299.948,-582 "/>
<text text-anchor="start" x="-486.052" y="-566.8" font-family="Times,serif" font-size="14.00">index</text>
<polyline fill="none" stroke="black" points="-494.052,-560 -299.948,-560 "/>
<polyline fill="none" stroke="black" points="-494.052,-536 -299.948,-536 "/>
<text text-anchor="start" x="-486.052" y="-520.8" font-family="Times,serif" font-size="14.00">_layout</text>
</g>
<!-- Api::V1::DomainsController -->
<g id="node9" class="node"><title>Api::V1::DomainsController</title>
<path fill="none" stroke="black" d="M-519.883,-248C-519.883,-248 -366.117,-248 -366.117,-248 -360.117,-248 -354.117,-254 -354.117,-260 -354.117,-260 -354.117,-326 -354.117,-326 -354.117,-332 -360.117,-338 -366.117,-338 -366.117,-338 -519.883,-338 -519.883,-338 -525.883,-338 -531.883,-332 -531.883,-326 -531.883,-326 -531.883,-260 -531.883,-260 -531.883,-254 -525.883,-248 -519.883,-248"/>
<text text-anchor="middle" x="-443" y="-322.8" font-family="Times,serif" font-size="14.00">Api::V1::DomainsController</text>
<polyline fill="none" stroke="black" points="-531.883,-316 -354.117,-316 "/>
<text text-anchor="start" x="-523.883" y="-300.8" font-family="Times,serif" font-size="14.00">index</text>
<polyline fill="none" stroke="black" points="-531.883,-294 -354.117,-294 "/>
<polyline fill="none" stroke="black" points="-531.883,-270 -354.117,-270 "/>
<text text-anchor="start" x="-523.883" y="-254.8" font-family="Times,serif" font-size="14.00">_layout</text>
</g>
<!-- Api::V1::GroupsController -->
<g id="node10" class="node"><title>Api::V1::GroupsController</title>
<path fill="none" stroke="black" d="M163.783,-362C163.783,-362 308.217,-362 308.217,-362 314.217,-362 320.217,-368 320.217,-374 320.217,-374 320.217,-538 320.217,-538 320.217,-544 314.217,-550 308.217,-550 308.217,-550 163.783,-550 163.783,-550 157.783,-550 151.783,-544 151.783,-538 151.783,-538 151.783,-374 151.783,-374 151.783,-368 157.783,-362 163.783,-362"/>
<text text-anchor="middle" x="236" y="-534.8" font-family="Times,serif" font-size="14.00">Api::V1::GroupsController</text>
<polyline fill="none" stroke="black" points="151.783,-528 320.217,-528 "/>
<text text-anchor="start" x="159.783" y="-512.8" font-family="Times,serif" font-size="14.00">create</text>
<text text-anchor="start" x="159.783" y="-498.8" font-family="Times,serif" font-size="14.00">destroy</text>
<text text-anchor="start" x="159.783" y="-484.8" font-family="Times,serif" font-size="14.00">index</text>
<text text-anchor="start" x="159.783" y="-470.8" font-family="Times,serif" font-size="14.00">show</text>
<text text-anchor="start" x="159.783" y="-456.8" font-family="Times,serif" font-size="14.00">update</text>
<polyline fill="none" stroke="black" points="151.783,-450 320.217,-450 "/>
<polyline fill="none" stroke="black" points="151.783,-426 320.217,-426 "/>
<text text-anchor="start" x="159.783" y="-410.8" font-family="Times,serif" font-size="14.00">_layout</text>
<text text-anchor="start" x="159.783" y="-396.8" font-family="Times,serif" font-size="14.00">authorize_manage</text>
<text text-anchor="start" x="159.783" y="-382.8" font-family="Times,serif" font-size="14.00">group_params</text>
<text text-anchor="start" x="159.783" y="-368.8" font-family="Times,serif" font-size="14.00">set_group</text>
</g>
<!-- Api::V1::LanguagesController -->
<g id="node11" class="node"><title>Api::V1::LanguagesController</title>
<path fill="none" stroke="black" d="M-538.928,-115C-538.928,-115 -375.072,-115 -375.072,-115 -369.072,-115 -363.072,-121 -363.072,-127 -363.072,-127 -363.072,-193 -363.072,-193 -363.072,-199 -369.072,-205 -375.072,-205 -375.072,-205 -538.928,-205 -538.928,-205 -544.928,-205 -550.928,-199 -550.928,-193 -550.928,-193 -550.928,-127 -550.928,-127 -550.928,-121 -544.928,-115 -538.928,-115"/>
<text text-anchor="middle" x="-457" y="-189.8" font-family="Times,serif" font-size="14.00">Api::V1::LanguagesController</text>
<polyline fill="none" stroke="black" points="-550.928,-183 -363.072,-183 "/>
<text text-anchor="start" x="-542.928" y="-167.8" font-family="Times,serif" font-size="14.00">index</text>
<polyline fill="none" stroke="black" points="-550.928,-161 -363.072,-161 "/>
<polyline fill="none" stroke="black" points="-550.928,-137 -363.072,-137 "/>
<text text-anchor="start" x="-542.928" y="-121.8" font-family="Times,serif" font-size="14.00">_layout</text>
</g>
<!-- Api::V1::NodeTypesController -->
<g id="node12" class="node"><title>Api::V1::NodeTypesController</title>
<path fill="none" stroke="black" d="M373.375,-362C373.375,-362 612.625,-362 612.625,-362 618.625,-362 624.625,-368 624.625,-374 624.625,-374 624.625,-482 624.625,-482 624.625,-488 618.625,-494 612.625,-494 612.625,-494 373.375,-494 373.375,-494 367.375,-494 361.375,-488 361.375,-482 361.375,-482 361.375,-374 361.375,-374 361.375,-368 367.375,-362 373.375,-362"/>
<text text-anchor="middle" x="493" y="-478.8" font-family="Times,serif" font-size="14.00">Api::V1::NodeTypesController</text>
<polyline fill="none" stroke="black" points="361.375,-472 624.625,-472 "/>
<text text-anchor="start" x="369.375" y="-456.8" font-family="Times,serif" font-size="14.00">create</text>
<text text-anchor="start" x="369.375" y="-442.8" font-family="Times,serif" font-size="14.00">index</text>
<polyline fill="none" stroke="black" points="361.375,-436 624.625,-436 "/>
<polyline fill="none" stroke="black" points="361.375,-412 624.625,-412 "/>
<text text-anchor="start" x="369.375" y="-396.8" font-family="Times,serif" font-size="14.00">_layout</text>
<text text-anchor="start" x="369.375" y="-382.8" font-family="Times,serif" font-size="14.00">node_types_params</text>
<text text-anchor="start" x="369.375" y="-368.8" font-family="Times,serif" font-size="14.00">teachstone_and_client_admin_authorization</text>
</g>
<!-- Api::V1::Nodes::UsersController -->
<g id="node13" class="node"><title>Api::V1::Nodes::UsersController</title>
<path fill="none" stroke="black" d="M-425.324,436C-425.324,436 -246.676,436 -246.676,436 -240.676,436 -234.676,430 -234.676,424 -234.676,424 -234.676,346 -234.676,346 -234.676,340 -240.676,334 -246.676,334 -246.676,334 -425.324,334 -425.324,334 -431.324,334 -437.324,340 -437.324,346 -437.324,346 -437.324,424 -437.324,424 -437.324,430 -431.324,436 -425.324,436"/>
<text text-anchor="middle" x="-336" y="349.2" font-family="Times,serif" font-size="14.00">Api::V1::Nodes::UsersController</text>
<polyline fill="none" stroke="black" points="-437.324,356 -234.676,356 "/>
<text text-anchor="start" x="-429.324" y="371.2" font-family="Times,serif" font-size="14.00">index</text>
<polyline fill="none" stroke="black" points="-437.324,378 -234.676,378 "/>
<text text-anchor="start" x="-429.324" y="393.2" font-family="Times,serif" font-size="14.00">authorize_access_to_node</text>
<text text-anchor="start" x="-429.324" y="407.2" font-family="Times,serif" font-size="14.00">load_node</text>
<polyline fill="none" stroke="black" points="-437.324,414 -234.676,414 "/>
<text text-anchor="start" x="-429.324" y="429.2" font-family="Times,serif" font-size="14.00">_layout</text>
</g>
<!-- Api::V1::OnboardingStatusController -->
<g id="node14" class="node"><title>Api::V1::OnboardingStatusController</title>
<path fill="none" stroke="black" d="M524.841,512C524.841,512 729.159,512 729.159,512 735.159,512 741.159,506 741.159,500 741.159,500 741.159,434 741.159,434 741.159,428 735.159,422 729.159,422 729.159,422 524.841,422 524.841,422 518.841,422 512.841,428 512.841,434 512.841,434 512.841,500 512.841,500 512.841,506 518.841,512 524.841,512"/>
<text text-anchor="middle" x="627" y="437.2" font-family="Times,serif" font-size="14.00">Api::V1::OnboardingStatusController</text>
<polyline fill="none" stroke="black" points="512.841,444 741.159,444 "/>
<text text-anchor="start" x="520.841" y="459.2" font-family="Times,serif" font-size="14.00">update</text>
<polyline fill="none" stroke="black" points="512.841,466 741.159,466 "/>
<polyline fill="none" stroke="black" points="512.841,490 741.159,490 "/>
<text text-anchor="start" x="520.841" y="505.2" font-family="Times,serif" font-size="14.00">_layout</text>
</g>
<!-- Api::V1::PdResourceDetailsController -->
<g id="node15" class="node"><title>Api::V1::PdResourceDetailsController</title>
<path fill="none" stroke="black" d="M449.127,227C449.127,227 658.873,227 658.873,227 664.873,227 670.873,221 670.873,215 670.873,215 670.873,149 670.873,149 670.873,143 664.873,137 658.873,137 658.873,137 449.127,137 449.127,137 443.127,137 437.127,143 437.127,149 437.127,149 437.127,215 437.127,215 437.127,221 443.127,227 449.127,227"/>
<text text-anchor="middle" x="554" y="152.2" font-family="Times,serif" font-size="14.00">Api::V1::PdResourceDetailsController</text>
<polyline fill="none" stroke="black" points="437.127,159 670.873,159 "/>
<text text-anchor="start" x="445.127" y="174.2" font-family="Times,serif" font-size="14.00">show</text>
<polyline fill="none" stroke="black" points="437.127,181 670.873,181 "/>
<polyline fill="none" stroke="black" points="437.127,205 670.873,205 "/>
<text text-anchor="start" x="445.127" y="220.2" font-family="Times,serif" font-size="14.00">_layout</text>
</g>
<!-- Api::V1::PdResourcesController -->
<g id="node16" class="node"><title>Api::V1::PdResourcesController</title>
<path fill="none" stroke="black" d="M-310.769,-77C-310.769,-77 -135.231,-77 -135.231,-77 -129.231,-77 -123.231,-83 -123.231,-89 -123.231,-89 -123.231,-253 -123.231,-253 -123.231,-259 -129.231,-265 -135.231,-265 -135.231,-265 -310.769,-265 -310.769,-265 -316.769,-265 -322.769,-259 -322.769,-253 -322.769,-253 -322.769,-89 -322.769,-89 -322.769,-83 -316.769,-77 -310.769,-77"/>
<text text-anchor="middle" x="-223" y="-249.8" font-family="Times,serif" font-size="14.00">Api::V1::PdResourcesController</text>
<polyline fill="none" stroke="black" points="-322.769,-243 -123.231,-243 "/>
<text text-anchor="start" x="-314.769" y="-227.8" font-family="Times,serif" font-size="14.00">create</text>
<text text-anchor="start" x="-314.769" y="-213.8" font-family="Times,serif" font-size="14.00">destroy</text>
<text text-anchor="start" x="-314.769" y="-199.8" font-family="Times,serif" font-size="14.00">index</text>
<text text-anchor="start" x="-314.769" y="-185.8" font-family="Times,serif" font-size="14.00">show</text>
<text text-anchor="start" x="-314.769" y="-171.8" font-family="Times,serif" font-size="14.00">update</text>
<polyline fill="none" stroke="black" points="-322.769,-165 -123.231,-165 "/>
<polyline fill="none" stroke="black" points="-322.769,-141 -123.231,-141 "/>
<text text-anchor="start" x="-314.769" y="-125.8" font-family="Times,serif" font-size="14.00">_layout</text>
<text text-anchor="start" x="-314.769" y="-111.8" font-family="Times,serif" font-size="14.00">calculate_sorting_clause</text>
<text text-anchor="start" x="-314.769" y="-97.8" font-family="Times,serif" font-size="14.00">pd_resource_params</text>
<text text-anchor="start" x="-314.769" y="-83.8" font-family="Times,serif" font-size="14.00">set_pd_resource</text>
</g>
<!-- Api::V1::PdResourcesRelatedContentController -->
<g id="node17" class="node"><title>Api::V1::PdResourcesRelatedContentController</title>
<path fill="none" stroke="black" d="M315.686,360C315.686,360 578.314,360 578.314,360 584.314,360 590.314,354 590.314,348 590.314,348 590.314,282 590.314,282 590.314,276 584.314,270 578.314,270 578.314,270 315.686,270 315.686,270 309.686,270 303.686,276 303.686,282 303.686,282 303.686,348 303.686,348 303.686,354 309.686,360 315.686,360"/>
<text text-anchor="middle" x="447" y="285.2" font-family="Times,serif" font-size="14.00">Api::V1::PdResourcesRelatedContentController</text>
<polyline fill="none" stroke="black" points="303.686,292 590.314,292 "/>
<text text-anchor="start" x="311.686" y="307.2" font-family="Times,serif" font-size="14.00">show</text>
<polyline fill="none" stroke="black" points="303.686,314 590.314,314 "/>
<polyline fill="none" stroke="black" points="303.686,338 590.314,338 "/>
<text text-anchor="start" x="311.686" y="353.2" font-family="Times,serif" font-size="14.00">_layout</text>
</g>
<!-- Api::V1::PdTypesController -->
<g id="node18" class="node"><title>Api::V1::PdTypesController</title>
<path fill="none" stroke="black" d="M-538.618,18C-538.618,18 -387.382,18 -387.382,18 -381.382,18 -375.382,12 -375.382,6 -375.382,6 -375.382,-60 -375.382,-60 -375.382,-66 -381.382,-72 -387.382,-72 -387.382,-72 -538.618,-72 -538.618,-72 -544.618,-72 -550.618,-66 -550.618,-60 -550.618,-60 -550.618,6 -550.618,6 -550.618,12 -544.618,18 -538.618,18"/>
<text text-anchor="middle" x="-463" y="-56.8" font-family="Times,serif" font-size="14.00">Api::V1::PdTypesController</text>
<polyline fill="none" stroke="black" points="-550.618,-50 -375.382,-50 "/>
<text text-anchor="start" x="-542.618" y="-34.8" font-family="Times,serif" font-size="14.00">index</text>
<polyline fill="none" stroke="black" points="-550.618,-28 -375.382,-28 "/>
<polyline fill="none" stroke="black" points="-550.618,-4 -375.382,-4 "/>
<text text-anchor="start" x="-542.618" y="11.2" font-family="Times,serif" font-size="14.00">_layout</text>
</g>
<!-- Api::V1::RecommendationGroupsController -->
<g id="node19" class="node"><title>Api::V1::RecommendationGroupsController</title>
<path fill="none" stroke="black" d="M411.407,-96C411.407,-96 654.593,-96 654.593,-96 660.593,-96 666.593,-102 666.593,-108 666.593,-108 666.593,-174 666.593,-174 666.593,-180 660.593,-186 654.593,-186 654.593,-186 411.407,-186 411.407,-186 405.407,-186 399.407,-180 399.407,-174 399.407,-174 399.407,-108 399.407,-108 399.407,-102 405.407,-96 411.407,-96"/>
<text text-anchor="middle" x="533" y="-170.8" font-family="Times,serif" font-size="14.00">Api::V1::RecommendationGroupsController</text>
<polyline fill="none" stroke="black" points="399.407,-164 666.593,-164 "/>
<text text-anchor="start" x="407.407" y="-148.8" font-family="Times,serif" font-size="14.00">create</text>
<polyline fill="none" stroke="black" points="399.407,-142 666.593,-142 "/>
<polyline fill="none" stroke="black" points="399.407,-118 666.593,-118 "/>
<text text-anchor="start" x="407.407" y="-102.8" font-family="Times,serif" font-size="14.00">_layout</text>
</g>
<!-- Api::V1::RecommendedResourcesController -->
<g id="node20" class="node"><title>Api::V1::RecommendedResourcesController</title>
<path fill="none" stroke="black" d="M-292.362,303C-292.362,303 -47.6377,303 -47.6377,303 -41.6377,303 -35.6377,297 -35.6377,291 -35.6377,291 -35.6377,197 -35.6377,197 -35.6377,191 -41.6377,185 -47.6377,185 -47.6377,185 -292.362,185 -292.362,185 -298.362,185 -304.362,191 -304.362,197 -304.362,197 -304.362,291 -304.362,291 -304.362,297 -298.362,303 -292.362,303"/>
<text text-anchor="middle" x="-170" y="200.2" font-family="Times,serif" font-size="14.00">Api::V1::RecommendedResourcesController</text>
<polyline fill="none" stroke="black" points="-304.362,207 -35.6377,207 "/>
<text text-anchor="start" x="-296.362" y="222.2" font-family="Times,serif" font-size="14.00">index</text>
<text text-anchor="start" x="-296.362" y="236.2" font-family="Times,serif" font-size="14.00">update</text>
<polyline fill="none" stroke="black" points="-304.362,243 -35.6377,243 "/>
<polyline fill="none" stroke="black" points="-304.362,267 -35.6377,267 "/>
<text text-anchor="start" x="-296.362" y="282.2" font-family="Times,serif" font-size="14.00">_layout</text>
<text text-anchor="start" x="-296.362" y="296.2" font-family="Times,serif" font-size="14.00">recommended_user_resource_params</text>
</g>
<!-- Api::V1::RolesController -->
<g id="node21" class="node"><title>Api::V1::RolesController</title>
<path fill="none" stroke="black" d="M-25.5518,-571C-25.5518,-571 109.552,-571 109.552,-571 115.552,-571 121.552,-577 121.552,-583 121.552,-583 121.552,-649 121.552,-649 121.552,-655 115.552,-661 109.552,-661 109.552,-661 -25.5518,-661 -25.5518,-661 -31.5518,-661 -37.5518,-655 -37.5518,-649 -37.5518,-649 -37.5518,-583 -37.5518,-583 -37.5518,-577 -31.5518,-571 -25.5518,-571"/>
<text text-anchor="middle" x="42" y="-645.8" font-family="Times,serif" font-size="14.00">Api::V1::RolesController</text>
<polyline fill="none" stroke="black" points="-37.5518,-639 121.552,-639 "/>
<text text-anchor="start" x="-29.5518" y="-623.8" font-family="Times,serif" font-size="14.00">index</text>
<polyline fill="none" stroke="black" points="-37.5518,-617 121.552,-617 "/>
<polyline fill="none" stroke="black" points="-37.5518,-593 121.552,-593 "/>
<text text-anchor="start" x="-29.5518" y="-577.8" font-family="Times,serif" font-size="14.00">_layout</text>
</g>
<!-- Api::V1::SessionsController -->
<g id="node22" class="node"><title>Api::V1::SessionsController</title>
<path fill="none" stroke="black" d="M-44.7241,-438C-44.7241,-438 106.724,-438 106.724,-438 112.724,-438 118.724,-444 118.724,-450 118.724,-450 118.724,-530 118.724,-530 118.724,-536 112.724,-542 106.724,-542 106.724,-542 -44.7241,-542 -44.7241,-542 -50.7241,-542 -56.7241,-536 -56.7241,-530 -56.7241,-530 -56.7241,-450 -56.7241,-450 -56.7241,-444 -50.7241,-438 -44.7241,-438"/>
<text text-anchor="middle" x="31" y="-526.8" font-family="Times,serif" font-size="14.00">Api::V1::SessionsController</text>
<polyline fill="none" stroke="black" points="-56.7241,-520 118.724,-520 "/>
<text text-anchor="start" x="-48.7241" y="-504.8" font-family="Times,serif" font-size="14.00">create</text>
<text text-anchor="start" x="-48.7241" y="-490.8" font-family="Times,serif" font-size="14.00">destroy</text>
<polyline fill="none" stroke="black" points="-56.7241,-484 118.724,-484 "/>
<polyline fill="none" stroke="black" points="-56.7241,-460 118.724,-460 "/>
<text text-anchor="start" x="-48.7241" y="-444.8" font-family="Times,serif" font-size="14.00">_layout</text>
</g>
<!-- Api::V1::SurveyController -->
<g id="node23" class="node"><title>Api::V1::SurveyController</title>
<path fill="none" stroke="black" d="M392.127,94C392.127,94 587.873,94 587.873,94 593.873,94 599.873,88 599.873,82 599.873,82 599.873,-40 599.873,-40 599.873,-46 593.873,-52 587.873,-52 587.873,-52 392.127,-52 392.127,-52 386.127,-52 380.127,-46 380.127,-40 380.127,-40 380.127,82 380.127,82 380.127,88 386.127,94 392.127,94"/>
<text text-anchor="middle" x="490" y="-36.8" font-family="Times,serif" font-size="14.00">Api::V1::SurveyController</text>
<polyline fill="none" stroke="black" points="380.127,-30 599.873,-30 "/>
<text text-anchor="start" x="388.127" y="-14.8" font-family="Times,serif" font-size="14.00">create</text>
<text text-anchor="start" x="388.127" y="-0.8" font-family="Times,serif" font-size="14.00">index</text>
<polyline fill="none" stroke="black" points="380.127,6 599.873,6 "/>
<polyline fill="none" stroke="black" points="380.127,30 599.873,30 "/>
<text text-anchor="start" x="388.127" y="45.2" font-family="Times,serif" font-size="14.00">_layout</text>
<text text-anchor="start" x="388.127" y="59.2" font-family="Times,serif" font-size="14.00">all_questions_should_have_answers</text>
<text text-anchor="start" x="388.127" y="73.2" font-family="Times,serif" font-size="14.00">current_user_is_teacher</text>
<text text-anchor="start" x="388.127" y="87.2" font-family="Times,serif" font-size="14.00">survey_params</text>
</g>
<!-- Api::V1::TeachersController -->
<g id="node24" class="node"><title>Api::V1::TeachersController</title>
<path fill="none" stroke="black" d="M-64.377,-191C-64.377,-191 88.377,-191 88.377,-191 94.377,-191 100.377,-197 100.377,-203 100.377,-203 100.377,-393 100.377,-393 100.377,-399 94.377,-405 88.377,-405 88.377,-405 -64.377,-405 -64.377,-405 -70.377,-405 -76.377,-399 -76.377,-393 -76.377,-393 -76.377,-203 -76.377,-203 -76.377,-197 -70.377,-191 -64.377,-191"/>
<text text-anchor="middle" x="12" y="-389.8" font-family="Times,serif" font-size="14.00">Api::V1::TeachersController</text>
<polyline fill="none" stroke="black" points="-76.377,-383 100.377,-383 "/>
<text text-anchor="start" x="-68.377" y="-367.8" font-family="Times,serif" font-size="14.00">available_teachers</text>
<text text-anchor="start" x="-68.377" y="-353.8" font-family="Times,serif" font-size="14.00">create</text>
<text text-anchor="start" x="-68.377" y="-339.8" font-family="Times,serif" font-size="14.00">destroy</text>
<text text-anchor="start" x="-68.377" y="-325.8" font-family="Times,serif" font-size="14.00">import</text>
<text text-anchor="start" x="-68.377" y="-311.8" font-family="Times,serif" font-size="14.00">index</text>
<polyline fill="none" stroke="black" points="-76.377,-305 100.377,-305 "/>
<text text-anchor="start" x="-68.377" y="-289.8" font-family="Times,serif" font-size="14.00">current_coach</text>
<text text-anchor="start" x="-68.377" y="-275.8" font-family="Times,serif" font-size="14.00">current_coach_teacher</text>
<text text-anchor="start" x="-68.377" y="-261.8" font-family="Times,serif" font-size="14.00">ensure_teacher_is_valid</text>
<text text-anchor="start" x="-68.377" y="-247.8" font-family="Times,serif" font-size="14.00">ensure_user_is_coach</text>
<polyline fill="none" stroke="black" points="-76.377,-241 100.377,-241 "/>
<text text-anchor="start" x="-68.377" y="-225.8" font-family="Times,serif" font-size="14.00">_layout</text>
<text text-anchor="start" x="-68.377" y="-211.8" font-family="Times,serif" font-size="14.00">importer_params</text>
<text text-anchor="start" x="-68.377" y="-197.8" font-family="Times,serif" font-size="14.00">teacher_params</text>
</g>
<!-- Api::V1::UserRoleNodesController -->
<g id="node25" class="node"><title>Api::V1::UserRoleNodesController</title>
<path fill="none" stroke="black" d="M-329.931,113C-329.931,113 -138.069,113 -138.069,113 -132.069,113 -126.069,107 -126.069,101 -126.069,101 -126.069,-19 -126.069,-19 -126.069,-25 -132.069,-31 -138.069,-31 -138.069,-31 -329.931,-31 -329.931,-31 -335.931,-31 -341.931,-25 -341.931,-19 -341.931,-19 -341.931,101 -341.931,101 -341.931,107 -335.931,113 -329.931,113"/>
<text text-anchor="middle" x="-234" y="-15.8" font-family="Times,serif" font-size="14.00">Api::V1::UserRoleNodesController</text>
<polyline fill="none" stroke="black" points="-341.931,-9 -126.069,-9 "/>
<text text-anchor="start" x="-333.931" y="6.2" font-family="Times,serif" font-size="14.00">create</text>
<text text-anchor="start" x="-333.931" y="20.2" font-family="Times,serif" font-size="14.00">destroy</text>
<text text-anchor="start" x="-333.931" y="34.2" font-family="Times,serif" font-size="14.00">index</text>
<text text-anchor="start" x="-333.931" y="48.2" font-family="Times,serif" font-size="14.00">show</text>
<polyline fill="none" stroke="black" points="-341.931,55 -126.069,55 "/>
<text text-anchor="start" x="-333.931" y="70.2" font-family="Times,serif" font-size="14.00">load_user</text>
<text text-anchor="start" x="-333.931" y="84.2" font-family="Times,serif" font-size="14.00">role_node_params</text>
<polyline fill="none" stroke="black" points="-341.931,91 -126.069,91 "/>
<text text-anchor="start" x="-333.931" y="106.2" font-family="Times,serif" font-size="14.00">_layout</text>
</g>
<!-- Api::V1::Users::SurveyController -->
<g id="node26" class="node"><title>Api::V1::Users::SurveyController</title>
<path fill="none" stroke="black" d="M11.731,493C11.731,493 194.269,493 194.269,493 200.269,493 206.269,487 206.269,481 206.269,481 206.269,401 206.269,401 206.269,395 200.269,389 194.269,389 194.269,389 11.731,389 11.731,389 5.73096,389 -0.269043,395 -0.269043,401 -0.269043,401 -0.269043,481 -0.269043,481 -0.269043,487 5.73096,493 11.731,493"/>
<text text-anchor="middle" x="103" y="404.2" font-family="Times,serif" font-size="14.00">Api::V1::Users::SurveyController</text>
<polyline fill="none" stroke="black" points="-0.269043,411 206.269,411 "/>
<text text-anchor="start" x="7.73096" y="426.2" font-family="Times,serif" font-size="14.00">index</text>
<polyline fill="none" stroke="black" points="-0.269043,433 206.269,433 "/>
<polyline fill="none" stroke="black" points="-0.269043,457 206.269,457 "/>
<text text-anchor="start" x="7.73096" y="472.2" font-family="Times,serif" font-size="14.00">_layout</text>
<text text-anchor="start" x="7.73096" y="486.2" font-family="Times,serif" font-size="14.00">ensure_is_this_coach_teacher</text>
</g>
<!-- Api::V1::UsersController -->
<g id="node27" class="node"><title>Api::V1::UsersController</title>
<path fill="none" stroke="black" d="M-82.5483,151C-82.5483,151 52.5483,151 52.5483,151 58.5483,151 64.5483,145 64.5483,139 64.5483,139 64.5483,-137 64.5483,-137 64.5483,-143 58.5483,-149 52.5483,-149 52.5483,-149 -82.5483,-149 -82.5483,-149 -88.5483,-149 -94.5483,-143 -94.5483,-137 -94.5483,-137 -94.5483,139 -94.5483,139 -94.5483,145 -88.5483,151 -82.5483,151"/>
<text text-anchor="middle" x="-15" y="-133.8" font-family="Times,serif" font-size="14.00">Api::V1::UsersController</text>
<polyline fill="none" stroke="black" points="-94.5483,-127 64.5483,-127 "/>
<text text-anchor="start" x="-86.5483" y="-111.8" font-family="Times,serif" font-size="14.00">create</text>
<text text-anchor="start" x="-86.5483" y="-97.8" font-family="Times,serif" font-size="14.00">image</text>
<text text-anchor="start" x="-86.5483" y="-83.8" font-family="Times,serif" font-size="14.00">image_ie9</text>
<text text-anchor="start" x="-86.5483" y="-69.8" font-family="Times,serif" font-size="14.00">index</text>
<text text-anchor="start" x="-86.5483" y="-55.8" font-family="Times,serif" font-size="14.00">me</text>
<text text-anchor="start" x="-86.5483" y="-41.8" font-family="Times,serif" font-size="14.00">password</text>
<text text-anchor="start" x="-86.5483" y="-27.8" font-family="Times,serif" font-size="14.00">recently_viewed</text>
<text text-anchor="start" x="-86.5483" y="-13.8" font-family="Times,serif" font-size="14.00">recommended_by</text>
<text text-anchor="start" x="-86.5483" y="0.2" font-family="Times,serif" font-size="14.00">recommended_to</text>
<text text-anchor="start" x="-86.5483" y="14.2" font-family="Times,serif" font-size="14.00">show</text>
<text text-anchor="start" x="-86.5483" y="28.2" font-family="Times,serif" font-size="14.00">update</text>
<polyline fill="none" stroke="black" points="-94.5483,35 64.5483,35 "/>
<polyline fill="none" stroke="black" points="-94.5483,59 64.5483,59 "/>
<text text-anchor="start" x="-86.5483" y="74.2" font-family="Times,serif" font-size="14.00">_layout</text>
<text text-anchor="start" x="-86.5483" y="88.2" font-family="Times,serif" font-size="14.00">authorize_access</text>
<text text-anchor="start" x="-86.5483" y="102.2" font-family="Times,serif" font-size="14.00">password_params</text>
<text text-anchor="start" x="-86.5483" y="116.2" font-family="Times,serif" font-size="14.00">password_restriction</text>
<text text-anchor="start" x="-86.5483" y="130.2" font-family="Times,serif" font-size="14.00">set_user</text>
<text text-anchor="start" x="-86.5483" y="144.2" font-family="Times,serif" font-size="14.00">user_params</text>
</g>
<!-- ApiSync::V1::MyclassSyncUsersController -->
<g id="node28" class="node"><title>ApiSync::V1::MyclassSyncUsersController</title>
<path fill="none" stroke="black" d="M12.1206,360C12.1206,360 249.879,360 249.879,360 255.879,360 261.879,354 261.879,348 261.879,348 261.879,268 261.879,268 261.879,262 255.879,256 249.879,256 249.879,256 12.1206,256 12.1206,256 6.12061,256 0.120605,262 0.120605,268 0.120605,268 0.120605,348 0.120605,348 0.120605,354 6.12061,360 12.1206,360"/>
<text text-anchor="middle" x="131" y="271.2" font-family="Times,serif" font-size="14.00">ApiSync::V1::MyclassSyncUsersController</text>
<polyline fill="none" stroke="black" points="0.120605,278 261.879,278 "/>
<text text-anchor="start" x="8.12061" y="293.2" font-family="Times,serif" font-size="14.00">sync_users</text>
<polyline fill="none" stroke="black" points="0.120605,300 261.879,300 "/>
<polyline fill="none" stroke="black" points="0.120605,324 261.879,324 "/>
<text text-anchor="start" x="8.12061" y="339.2" font-family="Times,serif" font-size="14.00">_layout</text>
<text text-anchor="start" x="8.12061" y="353.2" font-family="Times,serif" font-size="14.00">user_params</text>
</g>
<!-- ApiSync::V1::PdResourcesController -->
<g id="node29" class="node"><title>ApiSync::V1::PdResourcesController</title>
<path fill="none" stroke="black" d="M259.231,493C259.231,493 462.769,493 462.769,493 468.769,493 474.769,487 474.769,481 474.769,481 474.769,413 474.769,413 474.769,407 468.769,401 462.769,401 462.769,401 259.231,401 259.231,401 253.231,401 247.231,407 247.231,413 247.231,413 247.231,481 247.231,481 247.231,487 253.231,493 259.231,493"/>
<text text-anchor="middle" x="361" y="416.2" font-family="Times,serif" font-size="14.00">ApiSync::V1::PdResourcesController</text>
<polyline fill="none" stroke="black" points="247.231,423 474.769,423 "/>
<polyline fill="none" stroke="black" points="247.231,447 474.769,447 "/>
<polyline fill="none" stroke="black" points="247.231,471 474.769,471 "/>
<text text-anchor="start" x="255.231" y="486.2" font-family="Times,serif" font-size="14.00">_layout</text>
</g>
<!-- ApiSync::V1::RolesController -->
<g id="node30" class="node"><title>ApiSync::V1::RolesController</title>
<path fill="none" stroke="black" d="M-557.552,569C-557.552,569 -394.448,569 -394.448,569 -388.448,569 -382.448,563 -382.448,557 -382.448,557 -382.448,489 -382.448,489 -382.448,483 -388.448,477 -394.448,477 -394.448,477 -557.552,477 -557.552,477 -563.552,477 -569.552,483 -569.552,489 -569.552,489 -569.552,557 -569.552,557 -569.552,563 -563.552,569 -557.552,569"/>
<text text-anchor="middle" x="-476" y="492.2" font-family="Times,serif" font-size="14.00">ApiSync::V1::RolesController</text>
<polyline fill="none" stroke="black" points="-569.552,499 -382.448,499 "/>
<polyline fill="none" stroke="black" points="-569.552,523 -382.448,523 "/>
<polyline fill="none" stroke="black" points="-569.552,547 -382.448,547 "/>
<text text-anchor="start" x="-561.552" y="562.2" font-family="Times,serif" font-size="14.00">_layout</text>
</g>
<!-- ApplicationController -->
<g id="node31" class="node"><title>ApplicationController</title>
<path fill="none" stroke="black" d="M373.179,-533C373.179,-533 488.821,-533 488.821,-533 494.821,-533 500.821,-539 500.821,-545 500.821,-545 500.821,-613 500.821,-613 500.821,-619 494.821,-625 488.821,-625 488.821,-625 373.179,-625 373.179,-625 367.179,-625 361.179,-619 361.179,-613 361.179,-613 361.179,-545 361.179,-545 361.179,-539 367.179,-533 373.179,-533"/>
<text text-anchor="middle" x="431" y="-609.8" font-family="Times,serif" font-size="14.00">ApplicationController</text>
<polyline fill="none" stroke="black" points="361.179,-603 500.821,-603 "/>
<polyline fill="none" stroke="black" points="361.179,-579 500.821,-579 "/>
<polyline fill="none" stroke="black" points="361.179,-555 500.821,-555 "/>
<text text-anchor="start" x="369.179" y="-539.8" font-family="Times,serif" font-size="14.00">_layout</text>
</g>
<!-- Devise::CustomCasSessionsController -->
<g id="node32" class="node"><title>Devise::CustomCasSessionsController</title>
<path fill="none" stroke="black" d="M411.5,-229C411.5,-229 620.5,-229 620.5,-229 626.5,-229 632.5,-235 632.5,-241 632.5,-241 632.5,-307 632.5,-307 632.5,-313 626.5,-319 620.5,-319 620.5,-319 411.5,-319 411.5,-319 405.5,-319 399.5,-313 399.5,-307 399.5,-307 399.5,-241 399.5,-241 399.5,-235 405.5,-229 411.5,-229"/>
<text text-anchor="middle" x="516" y="-303.8" font-family="Times,serif" font-size="14.00">Devise::CustomCasSessionsController</text>
<polyline fill="none" stroke="black" points="399.5,-297 632.5,-297 "/>
<text text-anchor="start" x="407.5" y="-281.8" font-family="Times,serif" font-size="14.00">destroy</text>
<polyline fill="none" stroke="black" points="399.5,-275 632.5,-275 "/>
<polyline fill="none" stroke="black" points="399.5,-251 632.5,-251 "/>
<text text-anchor="start" x="407.5" y="-235.8" font-family="Times,serif" font-size="14.00">_layout</text>
</g>
<!-- HomeController -->
<g id="node33" class="node"><title>HomeController</title>
<path fill="none" stroke="black" d="M-329.879,569C-329.879,569 -246.121,569 -246.121,569 -240.121,569 -234.121,563 -234.121,557 -234.121,557 -234.121,491 -234.121,491 -234.121,485 -240.121,479 -246.121,479 -246.121,479 -329.879,479 -329.879,479 -335.879,479 -341.879,485 -341.879,491 -341.879,491 -341.879,557 -341.879,557 -341.879,563 -335.879,569 -329.879,569"/>
<text text-anchor="middle" x="-288" y="494.2" font-family="Times,serif" font-size="14.00">HomeController</text>
<polyline fill="none" stroke="black" points="-341.879,501 -234.121,501 "/>
<text text-anchor="start" x="-333.879" y="516.2" font-family="Times,serif" font-size="14.00">index</text>
<polyline fill="none" stroke="black" points="-341.879,523 -234.121,523 "/>
<polyline fill="none" stroke="black" points="-341.879,547 -234.121,547 "/>
<text text-anchor="start" x="-333.879" y="562.2" font-family="Times,serif" font-size="14.00">_layout</text>
</g>
<!-- LoginsController -->
<g id="node34" class="node"><title>LoginsController</title>
<path fill="none" stroke="black" d="M-178.379,493C-178.379,493 -87.6206,493 -87.6206,493 -81.6206,493 -75.6206,487 -75.6206,481 -75.6206,481 -75.6206,345 -75.6206,345 -75.6206,339 -81.6206,333 -87.6206,333 -87.6206,333 -178.379,333 -178.379,333 -184.379,333 -190.379,339 -190.379,345 -190.379,345 -190.379,481 -190.379,481 -190.379,487 -184.379,493 -178.379,493"/>
<text text-anchor="middle" x="-133" y="348.2" font-family="Times,serif" font-size="14.00">LoginsController</text>
<polyline fill="none" stroke="black" points="-190.379,355 -75.6206,355 "/>
<text text-anchor="start" x="-182.379" y="370.2" font-family="Times,serif" font-size="14.00">get_base_url</text>
<text text-anchor="start" x="-182.379" y="384.2" font-family="Times,serif" font-size="14.00">login</text>
<text text-anchor="start" x="-182.379" y="398.2" font-family="Times,serif" font-size="14.00">login_error</text>
<text text-anchor="start" x="-182.379" y="412.2" font-family="Times,serif" font-size="14.00">redirect_to_home</text>
<text text-anchor="start" x="-182.379" y="426.2" font-family="Times,serif" font-size="14.00">set_login_params</text>
<text text-anchor="start" x="-182.379" y="440.2" font-family="Times,serif" font-size="14.00">unregistered</text>
<polyline fill="none" stroke="black" points="-190.379,447 -75.6206,447 "/>
<polyline fill="none" stroke="black" points="-190.379,471 -75.6206,471 "/>
<text text-anchor="start" x="-182.379" y="486.2" font-family="Times,serif" font-size="14.00">_layout</text>
</g>
<!-- PasswordsController -->
<g id="node35" class="node"><title>PasswordsController</title>
<path fill="none" stroke="black" d="M106.869,227C106.869,227 395.131,227 395.131,227 401.131,227 407.131,221 407.131,215 407.131,215 407.131,151 407.131,151 407.131,145 401.131,139 395.131,139 395.131,139 106.869,139 106.869,139 100.869,139 94.8687,145 94.8687,151 94.8687,151 94.8687,215 94.8687,215 94.8687,221 100.869,227 106.869,227"/>
<text text-anchor="middle" x="251" y="154.2" font-family="Times,serif" font-size="14.00">PasswordsController</text>
<polyline fill="none" stroke="black" points="94.8687,161 407.131,161 "/>
<text text-anchor="start" x="102.869" y="176.2" font-family="Times,serif" font-size="14.00">update</text>
<polyline fill="none" stroke="black" points="94.8687,183 407.131,183 "/>
<text text-anchor="start" x="102.869" y="198.2" font-family="Times,serif" font-size="14.00">after_sending_reset_password_instructions_path_for</text>
<polyline fill="none" stroke="black" points="94.8687,205 407.131,205 "/>
<text text-anchor="start" x="102.869" y="220.2" font-family="Times,serif" font-size="14.00">_layout</text>
</g>
<!-- UsersController -->
<g id="node36" class="node"><title>UsersController</title>
<path fill="none" stroke="black" d="M-557.714,379C-557.714,379 -476.286,379 -476.286,379 -470.286,379 -464.286,373 -464.286,367 -464.286,367 -464.286,287 -464.286,287 -464.286,281 -470.286,275 -476.286,275 -476.286,275 -557.714,275 -557.714,275 -563.714,275 -569.714,281 -569.714,287 -569.714,287 -569.714,367 -569.714,367 -569.714,373 -563.714,379 -557.714,379"/>
<text text-anchor="middle" x="-517" y="290.2" font-family="Times,serif" font-size="14.00">UsersController</text>
<polyline fill="none" stroke="black" points="-569.714,297 -464.286,297 "/>
<text text-anchor="start" x="-561.714" y="312.2" font-family="Times,serif" font-size="14.00">index</text>
<text text-anchor="start" x="-561.714" y="326.2" font-family="Times,serif" font-size="14.00">show</text>
<polyline fill="none" stroke="black" points="-569.714,333 -464.286,333 "/>
<polyline fill="none" stroke="black" points="-569.714,357 -464.286,357 "/>
<text text-anchor="start" x="-561.714" y="372.2" font-family="Times,serif" font-size="14.00">_layout</text>
</g>
</g>
</svg>
