<?xml version="1.0" encoding="UTF-8" standalone="no"?>
<!DOCTYPE svg PUBLIC "-//W3C//DTD SVG 1.1//EN"
 "http://www.w3.org/Graphics/SVG/1.1/DTD/svg11.dtd">
<!-- Generated by graphviz version 2.38.0 (20140413.2041)
 -->
<!-- Title: models_diagram Pages: 1 -->
<svg width="2532pt" height="949pt"
 viewBox="0.00 0.00 2531.62 949.00" xmlns="http://www.w3.org/2000/svg" xmlns:xlink="http://www.w3.org/1999/xlink">
<g id="graph0" class="graph" transform="scale(1 1) rotate(0) translate(4 945)">
<title>models_diagram</title>
<polygon fill="white" stroke="none" points="-4,4 -4,-945 2527.62,-945 2527.62,4 -4,4"/>
<!-- _diagram_info -->
<g id="node1" class="node"><title>_diagram_info</title>
<text text-anchor="start" x="800.712" y="-926.6" font-family="Times,serif" font-size="13.00">Models diagram</text>
<text text-anchor="start" x="800.712" y="-913.6" font-family="Times,serif" font-size="13.00">Date: May 12 2015 &#45; 08:34</text>
<text text-anchor="start" x="800.712" y="-900.6" font-family="Times,serif" font-size="13.00">Migration version: 20150510134716</text>
<text text-anchor="start" x="800.712" y="-887.6" font-family="Times,serif" font-size="13.00">Generated by RailRoady 1.3.0</text>
<text text-anchor="start" x="800.712" y="-874.6" font-family="Times,serif" font-size="13.00">http://railroady.prestonlee.com</text>
</g>
<!-- Account -->
<g id="node2" class="node"><title>Account</title>
<ellipse fill="none" stroke="black" cx="1240.4" cy="-800" rx="40.1317" ry="18"/>
<text text-anchor="middle" x="1240.4" y="-795.8" font-family="Times,serif" font-size="14.00">Account</text>
</g>
<!-- AccountContact -->
<g id="node3" class="node"><title>AccountContact</title>
<ellipse fill="none" stroke="black" cx="1411.4" cy="-714" rx="67.6442" ry="18"/>
<text text-anchor="middle" x="1411.4" y="-709.8" font-family="Times,serif" font-size="14.00">AccountContact</text>
</g>
<!-- Account&#45;&gt;AccountContact -->
<g id="edge1" class="edge"><title>Account&#45;&gt;AccountContact</title>
<path fill="none" stroke="#27b897" d="M1278.61,-785.549C1294.56,-779.529 1313.14,-771.99 1329.4,-764 1346.04,-755.825 1363.79,-745.445 1378.5,-736.345"/>
<ellipse fill="none" stroke="#27b897" cx="1274.75" cy="-786.983" rx="4.00001" ry="4.00001"/>
<polygon fill="#27b897" stroke="#27b897" points="1378.75,-736.185 1389.62,-734.689 1382.99,-733.53 1387.23,-730.876 1387.23,-730.876 1387.23,-730.876 1382.99,-733.53 1384.84,-727.062 1378.75,-736.185 1378.75,-736.185"/>
<text text-anchor="middle" x="1377.33" y="-752.8" font-family="Times,serif" font-size="14.00">contacts</text>
</g>
<!-- Node -->
<g id="node17" class="node"><title>Node</title>
<ellipse fill="none" stroke="black" cx="1319.4" cy="-641" rx="29.0257" ry="18"/>
<text text-anchor="middle" x="1319.4" y="-636.8" font-family="Times,serif" font-size="14.00">Node</text>
</g>
<!-- Account&#45;&gt;Node -->
<g id="edge2" class="edge"><title>Account&#45;&gt;Node</title>
<path fill="none" stroke="#3ad794" d="M1262.79,-777.374C1274.36,-765.061 1287.81,-748.777 1296.4,-732 1306.54,-712.2 1312.43,-687.61 1315.7,-669.139"/>
<ellipse fill="none" stroke="#3ad794" cx="1259.72" cy="-780.553" rx="4.00002" ry="4.00002"/>
<polygon fill="#3ad794" stroke="#3ad794" points="1315.74,-668.923 1321.79,-659.775 1316.54,-663.988 1317.34,-659.053 1317.34,-659.053 1317.34,-659.053 1316.54,-663.988 1312.9,-658.331 1315.74,-668.923 1315.74,-668.923"/>
</g>
<!-- NodeType -->
<g id="node18" class="node"><title>NodeType</title>
<ellipse fill="none" stroke="black" cx="1240.4" cy="-714" rx="46.6307" ry="18"/>
<text text-anchor="middle" x="1240.4" y="-709.8" font-family="Times,serif" font-size="14.00">NodeType</text>
</g>
<!-- Account&#45;&gt;NodeType -->
<g id="edge4" class="edge"><title>Account&#45;&gt;NodeType</title>
<path fill="none" stroke="#86db2d" d="M1240.4,-773.257C1240.4,-763.441 1240.4,-752.226 1240.4,-742.273"/>
<ellipse fill="none" stroke="#86db2d" cx="1240.4" cy="-777.595" rx="4" ry="4"/>
<polygon fill="#86db2d" stroke="#86db2d" points="1240.4,-742.095 1244.9,-732.095 1240.4,-737.095 1240.4,-732.095 1240.4,-732.095 1240.4,-732.095 1240.4,-737.095 1235.9,-732.095 1240.4,-742.095 1240.4,-742.095"/>
</g>
<!-- UserRoleNode -->
<g id="node37" class="node"><title>UserRoleNode</title>
<ellipse fill="none" stroke="black" cx="1585.4" cy="-237" rx="62.8252" ry="18"/>
<text text-anchor="middle" x="1585.4" y="-232.8" font-family="Times,serif" font-size="14.00">UserRoleNode</text>
</g>
<!-- Account&#45;&gt;UserRoleNode -->
<g id="edge3" class="edge"><title>Account&#45;&gt;UserRoleNode</title>
<path fill="none" stroke="#6c27d3" d="M1205.32,-780.953C1182.67,-766.533 1157.4,-743.958 1157.4,-715 1157.4,-715 1157.4,-715 1157.4,-524 1157.4,-496.028 1159.02,-485.919 1176.4,-464 1188.01,-449.359 1448.83,-300.625 1465.4,-292 1490.34,-279.023 1519.02,-266.045 1542.1,-256.066"/>
<polygon fill="#6c27d3" stroke="#6c27d3" points="1205.57,-781.104 1211.82,-790.116 1209.85,-783.682 1214.14,-786.26 1214.14,-786.26 1214.14,-786.26 1209.85,-783.682 1216.46,-782.405 1205.57,-781.104 1205.57,-781.104"/>
<polygon fill="#6c27d3" stroke="#6c27d3" points="1542.1,-256.064 1553.06,-256.254 1546.69,-254.092 1551.29,-252.119 1551.29,-252.119 1551.29,-252.119 1546.69,-254.092 1549.51,-247.984 1542.1,-256.064 1542.1,-256.064"/>
</g>
<!-- AgeLevel -->
<g id="node4" class="node"><title>AgeLevel</title>
<ellipse fill="none" stroke="black" cx="275.4" cy="-310" rx="44.9423" ry="18"/>
<text text-anchor="middle" x="275.4" y="-305.8" font-family="Times,serif" font-size="14.00">AgeLevel</text>
</g>
<!-- Dimension -->
<g id="node10" class="node"><title>Dimension</title>
<ellipse fill="none" stroke="black" cx="591.4" cy="-237" rx="48.8359" ry="18"/>
<text text-anchor="middle" x="591.4" y="-232.8" font-family="Times,serif" font-size="14.00">Dimension</text>
</g>
<!-- AgeLevel&#45;&gt;Dimension -->
<g id="edge7" class="edge"><title>AgeLevel&#45;&gt;Dimension</title>
<path fill="none" stroke="#df9ff8" d="M318.547,-294.939C322.204,-293.893 325.857,-292.897 329.4,-292 370.212,-281.662 381.143,-282.386 422.4,-274 462.096,-265.931 506.934,-256.359 540.446,-249.113"/>
<polygon fill="#df9ff8" stroke="#df9ff8" points="318.52,-294.947 307.653,-293.48 313.727,-296.37 308.933,-297.794 308.933,-297.794 308.933,-297.794 313.727,-296.37 310.214,-302.107 318.52,-294.947 318.52,-294.947"/>
<polygon fill="#df9ff8" stroke="#df9ff8" points="540.691,-249.06 551.417,-251.342 545.578,-248.002 550.465,-246.944 550.465,-246.944 550.465,-246.944 545.578,-248.002 549.512,-242.546 540.691,-249.06 540.691,-249.06"/>
</g>
<!-- DimensionHierarchy -->
<g id="node11" class="node"><title>DimensionHierarchy</title>
<ellipse fill="none" stroke="black" cx="632.4" cy="-91" rx="84.041" ry="18"/>
<text text-anchor="middle" x="632.4" y="-86.8" font-family="Times,serif" font-size="14.00">DimensionHierarchy</text>
</g>
<!-- AgeLevel&#45;&gt;DimensionHierarchy -->
<g id="edge5" class="edge"><title>AgeLevel&#45;&gt;DimensionHierarchy</title>
<path fill="none" stroke="#d97416" d="M300.872,-288.342C324.839,-269.324 362.075,-240.837 396.4,-219 462.094,-177.206 542.746,-135.784 590.728,-112.107"/>
<ellipse fill="none" stroke="#d97416" cx="297.605" cy="-290.948" rx="4.00002" ry="4.00002"/>
<polygon fill="#d97416" stroke="#d97416" points="590.9,-112.023 601.86,-111.653 595.388,-109.818 599.875,-107.614 599.875,-107.614 599.875,-107.614 595.388,-109.818 597.891,-103.575 590.9,-112.023 590.9,-112.023"/>
</g>
<!-- Domain -->
<g id="node13" class="node"><title>Domain</title>
<ellipse fill="none" stroke="black" cx="598.4" cy="-164" rx="38.6955" ry="18"/>
<text text-anchor="middle" x="598.4" y="-159.8" font-family="Times,serif" font-size="14.00">Domain</text>
</g>
<!-- AgeLevel&#45;&gt;Domain -->
<g id="edge6" class="edge"><title>AgeLevel&#45;&gt;Domain</title>
<path fill="none" stroke="#c503f7" d="M313.586,-291.976C376.305,-264.014 500.306,-208.733 561.904,-181.271"/>
<polygon fill="#c503f7" stroke="#c503f7" points="313.482,-292.022 302.516,-291.984 308.915,-294.058 304.348,-296.094 304.348,-296.094 304.348,-296.094 308.915,-294.058 306.181,-300.204 313.482,-292.022 313.482,-292.022"/>
<polygon fill="#c503f7" stroke="#c503f7" points="562.102,-181.183 573.067,-181.221 566.668,-179.147 571.235,-177.111 571.235,-177.111 571.235,-177.111 566.668,-179.147 569.403,-173.001 562.102,-181.183 562.102,-181.183"/>
</g>
<!-- Answer -->
<g id="node5" class="node"><title>Answer</title>
<ellipse fill="none" stroke="black" cx="1223.4" cy="-482" rx="37.7266" ry="18"/>
<text text-anchor="middle" x="1223.4" y="-477.8" font-family="Times,serif" font-size="14.00">Answer</text>
</g>
<!-- ApiToken -->
<g id="node6" class="node"><title>ApiToken</title>
<ellipse fill="none" stroke="black" cx="1686.4" cy="-482" rx="45.1942" ry="18"/>
<text text-anchor="middle" x="1686.4" y="-477.8" font-family="Times,serif" font-size="14.00">ApiToken</text>
</g>
<!-- CoachTeacher -->
<g id="node7" class="node"><title>CoachTeacher</title>
<ellipse fill="none" stroke="black" cx="1810.4" cy="-482" rx="60.6017" ry="18"/>
<text text-anchor="middle" x="1810.4" y="-477.8" font-family="Times,serif" font-size="14.00">CoachTeacher</text>
</g>
<!-- Comment -->
<g id="node8" class="node"><title>Comment</title>
<ellipse fill="none" stroke="black" cx="2142.4" cy="-237" rx="44.9768" ry="18"/>
<text text-anchor="middle" x="2142.4" y="-232.8" font-family="Times,serif" font-size="14.00">Comment</text>
</g>
<!-- DetailsChartRow -->
<g id="node9" class="node"><title>DetailsChartRow</title>
<ellipse fill="none" stroke="black" cx="77.4001" cy="-237" rx="71.5204" ry="18"/>
<text text-anchor="middle" x="77.4001" y="-232.8" font-family="Times,serif" font-size="14.00">DetailsChartRow</text>
</g>
<!-- Dimension&#45;&gt;DimensionHierarchy -->
<g id="edge8" class="edge"><title>Dimension&#45;&gt;DimensionHierarchy</title>
<path fill="none" stroke="#2574ef" d="M620.267,-215.579C630.539,-206.586 640.912,-195.08 646.4,-182 654.866,-161.823 650.09,-137.163 643.913,-118.762"/>
<ellipse fill="none" stroke="#2574ef" cx="617.006" cy="-218.289" rx="4.00002" ry="4.00002"/>
<polygon fill="#2574ef" stroke="#2574ef" points="643.866,-118.636 644.636,-107.697 642.139,-113.943 640.412,-109.251 640.412,-109.251 640.412,-109.251 642.139,-113.943 636.189,-110.805 643.866,-118.636 643.866,-118.636"/>
</g>
<!-- Dimension&#45;&gt;Domain -->
<g id="edge9" class="edge"><title>Dimension&#45;&gt;Domain</title>
<path fill="none" stroke="#55fdda" d="M594.086,-208.753C594.626,-203.276 595.194,-197.521 595.733,-192.051"/>
<polygon fill="#55fdda" stroke="#55fdda" points="594.076,-208.861 588.616,-218.371 593.585,-213.837 593.095,-218.813 593.095,-218.813 593.095,-218.813 593.585,-213.837 597.573,-219.254 594.076,-208.861 594.076,-208.861"/>
<polygon fill="#55fdda" stroke="#55fdda" points="595.74,-191.981 601.199,-182.47 596.231,-187.005 596.721,-182.029 596.721,-182.029 596.721,-182.029 596.231,-187.005 592.243,-181.587 595.74,-191.981 595.74,-191.981"/>
</g>
<!-- DimensionHierarchyPdResource -->
<g id="node12" class="node"><title>DimensionHierarchyPdResource</title>
<ellipse fill="none" stroke="black" cx="710.4" cy="-18" rx="126.528" ry="18"/>
<text text-anchor="middle" x="710.4" y="-13.8" font-family="Times,serif" font-size="14.00">DimensionHierarchyPdResource</text>
</g>
<!-- DimensionHierarchy&#45;&gt;DimensionHierarchyPdResource -->
<g id="edge10" class="edge"><title>DimensionHierarchy&#45;&gt;DimensionHierarchyPdResource</title>
<path fill="none" stroke="#40443e" d="M656.923,-67.6781C665.638,-59.7449 675.478,-50.7884 684.319,-42.7409"/>
<ellipse fill="none" stroke="#40443e" cx="653.843" cy="-70.4814" rx="4.00002" ry="4.00002"/>
<polygon fill="#40443e" stroke="#40443e" points="684.382,-42.6828 694.807,-39.2791 688.08,-39.317 691.778,-35.9513 691.778,-35.9513 691.778,-35.9513 688.08,-39.317 688.748,-32.6235 684.382,-42.6828 684.382,-42.6828"/>
</g>
<!-- PdResource -->
<g id="node22" class="node"><title>PdResource</title>
<ellipse fill="none" stroke="black" cx="748.4" cy="-396" rx="52.202" ry="18"/>
<text text-anchor="middle" x="748.4" y="-391.8" font-family="Times,serif" font-size="14.00">PdResource</text>
</g>
<!-- DimensionHierarchy&#45;&gt;PdResource -->
<g id="edge11" class="edge"><title>DimensionHierarchy&#45;&gt;PdResource</title>
<path fill="none" stroke="#30b371" d="M673.471,-113.157C690.519,-125.097 706.4,-141.885 706.4,-163 706.4,-311 706.4,-311 706.4,-311 706.4,-333.649 710.011,-339.874 720.4,-360 722.235,-363.555 724.462,-367.093 726.85,-370.478"/>
<polygon fill="#30b371" stroke="#30b371" points="673.453,-113.145 667.529,-103.917 669.263,-110.416 665.073,-107.688 665.073,-107.688 665.073,-107.688 669.263,-110.416 662.617,-111.459 673.453,-113.145 673.453,-113.145"/>
<polygon fill="#30b371" stroke="#30b371" points="726.909,-370.556 729.409,-381.233 729.947,-374.528 732.984,-378.5 732.984,-378.5 732.984,-378.5 729.947,-374.528 736.559,-375.766 726.909,-370.556 726.909,-370.556"/>
</g>
<!-- Domain&#45;&gt;DimensionHierarchy -->
<g id="edge12" class="edge"><title>Domain&#45;&gt;DimensionHierarchy</title>
<path fill="none" stroke="#db548f" d="M610.027,-138.721C613.15,-132.199 616.543,-125.114 619.72,-118.479"/>
<ellipse fill="none" stroke="#db548f" cx="608.185" cy="-142.566" rx="4.00002" ry="4.00002"/>
<polygon fill="#db548f" stroke="#db548f" points="619.845,-118.218 628.223,-111.142 622.005,-113.708 624.164,-109.198 624.164,-109.198 624.164,-109.198 622.005,-113.708 620.106,-107.255 619.845,-118.218 619.845,-118.218"/>
</g>
<!-- Group -->
<g id="node14" class="node"><title>Group</title>
<ellipse fill="none" stroke="black" cx="1388.4" cy="-482" rx="32.9081" ry="18"/>
<text text-anchor="middle" x="1388.4" y="-477.8" font-family="Times,serif" font-size="14.00">Group</text>
</g>
<!-- GroupMembership -->
<g id="node15" class="node"><title>GroupMembership</title>
<ellipse fill="none" stroke="black" cx="1508.4" cy="-396" rx="77.3089" ry="18"/>
<text text-anchor="middle" x="1508.4" y="-391.8" font-family="Times,serif" font-size="14.00">GroupMembership</text>
</g>
<!-- Group&#45;&gt;GroupMembership -->
<g id="edge13" class="edge"><title>Group&#45;&gt;GroupMembership</title>
<path fill="none" stroke="#e00201" d="M1414.74,-462.559C1433.07,-449.73 1457.59,-432.567 1476.94,-419.019"/>
<ellipse fill="none" stroke="#e00201" cx="1411.22" cy="-465.023" rx="4.00002" ry="4.00002"/>
<polygon fill="#e00201" stroke="#e00201" points="1476.97,-419.003 1487.74,-416.955 1481.06,-416.136 1485.16,-413.268 1485.16,-413.268 1485.16,-413.268 1481.06,-416.136 1482.58,-409.582 1476.97,-419.003 1476.97,-419.003"/>
</g>
<!-- User -->
<g id="node35" class="node"><title>User</title>
<ellipse fill="none" stroke="black" cx="1643.4" cy="-568" rx="27" ry="18"/>
<text text-anchor="middle" x="1643.4" y="-563.8" font-family="Times,serif" font-size="14.00">User</text>
</g>
<!-- Group&#45;&gt;User -->
<g id="edge14" class="edge"><title>Group&#45;&gt;User</title>
<path fill="none" stroke="#13b57e" d="M1416.13,-502.207C1434.85,-515.037 1457.03,-529.93 1462.08,-532 1509.81,-551.55 1569.16,-560.351 1606.67,-564.192"/>
<polygon fill="#13b57e" stroke="#13b57e" points="1416.09,-502.178 1410.4,-492.804 1411.97,-499.345 1407.85,-496.512 1407.85,-496.512 1407.85,-496.512 1411.97,-499.345 1405.3,-500.219 1416.09,-502.178 1416.09,-502.178"/>
<polygon fill="#13b57e" stroke="#13b57e" points="1606.69,-564.194 1616.21,-569.628 1611.67,-564.671 1616.64,-565.148 1616.64,-565.148 1616.64,-565.148 1611.67,-564.671 1617.07,-560.669 1606.69,-564.194 1606.69,-564.194"/>
<text text-anchor="middle" x="1487.06" y="-520.8" font-family="Times,serif" font-size="14.00">members</text>
</g>
<!-- Language -->
<g id="node16" class="node"><title>Language</title>
<ellipse fill="none" stroke="black" cx="804.4" cy="-482" rx="44.9423" ry="18"/>
<text text-anchor="middle" x="804.4" y="-477.8" font-family="Times,serif" font-size="14.00">Language</text>
</g>
<!-- Language&#45;&gt;PdResource -->
<g id="edge15" class="edge"><title>Language&#45;&gt;PdResource</title>
<path fill="none" stroke="#a05e59" d="M788.731,-457.496C781.43,-446.545 772.732,-433.498 765.285,-422.328"/>
<ellipse fill="none" stroke="#a05e59" cx="791.117" cy="-461.076" rx="4.00002" ry="4.00002"/>
<polygon fill="#a05e59" stroke="#a05e59" points="765.18,-422.169 763.377,-411.353 762.406,-418.009 759.633,-413.849 759.633,-413.849 759.633,-413.849 762.406,-418.009 755.888,-416.345 765.18,-422.169 765.18,-422.169"/>
</g>
<!-- Node&#45;&gt;Node -->
<g id="edge18" class="edge"><title>Node&#45;&gt;Node</title>
<path fill="none" stroke="#d2d04e" d="M1354.78,-647.457C1361.72,-646.715 1366.66,-644.563 1366.66,-641 1366.66,-637.816 1362.72,-635.759 1356.93,-634.827"/>
<ellipse fill="none" stroke="#d2d04e" cx="1350.6" cy="-647.586" rx="4" ry="4"/>
<polygon fill="#d2d04e" stroke="#d2d04e" points="1356.58,-634.81 1346.83,-629.797 1351.59,-634.551 1346.6,-634.291 1346.6,-634.291 1346.6,-634.291 1351.59,-634.551 1346.36,-638.785 1356.58,-634.81 1356.58,-634.81"/>
<text text-anchor="middle" x="1389.6" y="-636.8" font-family="Times,serif" font-size="14.00">children</text>
</g>
<!-- Node&#45;&gt;User -->
<g id="edge17" class="edge"><title>Node&#45;&gt;User</title>
<path fill="none" stroke="#56daf9" d="M1356.51,-631.868C1419.42,-618.082 1546.17,-590.306 1607.94,-576.77"/>
<polygon fill="#56daf9" stroke="#56daf9" points="1356.24,-631.928 1345.5,-629.673 1351.35,-632.998 1346.47,-634.069 1346.47,-634.069 1346.47,-634.069 1351.35,-632.998 1347.43,-638.464 1356.24,-631.928 1356.24,-631.928"/>
<polygon fill="#56daf9" stroke="#56daf9" points="1608.22,-576.71 1618.95,-578.965 1613.1,-575.639 1617.99,-574.569 1617.99,-574.569 1617.99,-574.569 1613.1,-575.639 1617.02,-570.173 1608.22,-576.71 1608.22,-576.71"/>
</g>
<!-- Node&#45;&gt;UserRoleNode -->
<g id="edge16" class="edge"><title>Node&#45;&gt;UserRoleNode</title>
<path fill="none" stroke="#752c9e" d="M1316.25,-614.711C1313.06,-577.716 1312.62,-508.424 1346.4,-464 1358.2,-448.481 1372.18,-459.337 1386.4,-446 1411.34,-422.606 1401.06,-404.718 1422.4,-378 1461.03,-329.636 1518.07,-285.149 1553.42,-259.833"/>
<ellipse fill="none" stroke="#752c9e" cx="1316.67" cy="-618.976" rx="4" ry="4"/>
<polygon fill="#752c9e" stroke="#752c9e" points="1553.75,-259.597 1564.51,-257.492 1557.83,-256.708 1561.91,-253.819 1561.91,-253.819 1561.91,-253.819 1557.83,-256.708 1559.31,-250.146 1553.75,-259.597 1553.75,-259.597"/>
</g>
<!-- NodeType&#45;&gt;Node -->
<g id="edge19" class="edge"><title>NodeType&#45;&gt;Node</title>
<path fill="none" stroke="#2ba014" d="M1263.96,-691.826C1274.04,-682.766 1285.79,-672.21 1295.86,-663.152"/>
<ellipse fill="none" stroke="#2ba014" cx="1260.91" cy="-694.569" rx="4.00002" ry="4.00002"/>
<polygon fill="#2ba014" stroke="#2ba014" points="1296.09,-662.951 1306.53,-659.613 1299.81,-659.609 1303.53,-656.267 1303.53,-656.267 1303.53,-656.267 1299.81,-659.609 1300.52,-652.92 1296.09,-662.951 1296.09,-662.951"/>
</g>
<!-- OnboardingInfo -->
<g id="node19" class="node"><title>OnboardingInfo</title>
<ellipse fill="none" stroke="black" cx="1918.4" cy="-237" rx="67.1684" ry="18"/>
<text text-anchor="middle" x="1918.4" y="-232.8" font-family="Times,serif" font-size="14.00">OnboardingInfo</text>
</g>
<!-- OnboardingStatus -->
<g id="node20" class="node"><title>OnboardingStatus</title>
<ellipse fill="none" stroke="black" cx="1918.4" cy="-164" rx="73.943" ry="18"/>
<text text-anchor="middle" x="1918.4" y="-159.8" font-family="Times,serif" font-size="14.00">OnboardingStatus</text>
</g>
<!-- OnboardingInfo&#45;&gt;OnboardingStatus -->
<g id="edge20" class="edge"><title>OnboardingInfo&#45;&gt;OnboardingStatus</title>
<path fill="none" stroke="#d619a6" d="M1918.4,-210.791C1918.4,-204.832 1918.4,-198.45 1918.4,-192.399"/>
<ellipse fill="none" stroke="#d619a6" cx="1918.4" cy="-214.813" rx="4" ry="4"/>
<polygon fill="#d619a6" stroke="#d619a6" points="1918.4,-192.029 1922.9,-182.029 1918.4,-187.029 1918.4,-182.029 1918.4,-182.029 1918.4,-182.029 1918.4,-187.029 1913.9,-182.029 1918.4,-192.029 1918.4,-192.029"/>
</g>
<!-- PackageResource -->
<g id="node21" class="node"><title>PackageResource</title>
<ellipse fill="none" stroke="black" cx="1064.4" cy="-800" rx="72.4462" ry="18"/>
<text text-anchor="middle" x="1064.4" y="-795.8" font-family="Times,serif" font-size="14.00">PackageResource</text>
</g>
<!-- PdResource&#45;&gt;AgeLevel -->
<g id="edge22" class="edge"><title>PdResource&#45;&gt;AgeLevel</title>
<path fill="none" stroke="#70de83" d="M685.622,-395.195C559.537,-394.93 285.068,-390.779 256.4,-360 250.189,-353.332 251.717,-344.408 255.889,-336.004"/>
<polygon fill="#70de83" stroke="#70de83" points="685.896,-395.196 695.89,-399.709 690.896,-395.202 695.896,-395.209 695.896,-395.209 695.896,-395.209 690.896,-395.202 695.902,-390.709 685.896,-395.196 685.896,-395.196"/>
<polygon fill="#70de83" stroke="#70de83" points="256.03,-335.772 265.063,-329.554 258.623,-331.496 261.215,-327.221 261.215,-327.221 261.215,-327.221 258.623,-331.496 257.367,-324.888 256.03,-335.772 256.03,-335.772"/>
</g>
<!-- PdResource&#45;&gt;Dimension -->
<g id="edge24" class="edge"><title>PdResource&#45;&gt;Dimension</title>
<path fill="none" stroke="#f8dba6" d="M701.449,-379.162C690.53,-374.117 679.462,-367.773 670.4,-360 639.354,-333.371 615.951,-291.552 602.959,-264.455"/>
<polygon fill="#f8dba6" stroke="#f8dba6" points="701.771,-379.301 709.168,-387.396 706.361,-381.283 710.952,-383.265 710.952,-383.265 710.952,-383.265 706.361,-381.283 712.735,-379.133 701.771,-379.301 701.771,-379.301"/>
<polygon fill="#f8dba6" stroke="#f8dba6" points="602.868,-264.26 602.729,-253.295 600.759,-259.727 598.649,-255.194 598.649,-255.194 598.649,-255.194 600.759,-259.727 594.569,-257.092 602.868,-264.26 602.868,-264.26"/>
</g>
<!-- PdResource&#45;&gt;DimensionHierarchyPdResource -->
<g id="edge21" class="edge"><title>PdResource&#45;&gt;DimensionHierarchyPdResource</title>
<path fill="none" stroke="#8325cc" d="M747.078,-369.718C745.913,-345.244 744.4,-307.091 744.4,-274 744.4,-274 744.4,-274 744.4,-90 744.4,-73.9436 737.239,-57.6712 729.49,-44.7626"/>
<ellipse fill="none" stroke="#8325cc" cx="747.277" cy="-373.778" rx="4" ry="4"/>
<polygon fill="#8325cc" stroke="#8325cc" points="729.262,-44.4097 727.618,-33.5678 726.55,-40.2093 723.838,-36.0089 723.838,-36.0089 723.838,-36.0089 726.55,-40.2093 720.057,-38.45 729.262,-44.4097 729.262,-44.4097"/>
</g>
<!-- PdResource&#45;&gt;Domain -->
<g id="edge23" class="edge"><title>PdResource&#45;&gt;Domain</title>
<path fill="none" stroke="#eb7170" d="M711.036,-375.042C705.215,-370.684 699.711,-365.657 695.4,-360 655.442,-307.575 683.069,-275.67 649.4,-219 642.608,-207.567 633.012,-196.583 623.973,-187.541"/>
<polygon fill="#eb7170" stroke="#eb7170" points="711.426,-375.308 717.155,-384.659 715.558,-378.124 719.689,-380.94 719.689,-380.94 719.689,-380.94 715.558,-378.124 722.224,-377.222 711.426,-375.308 711.426,-375.308"/>
<polygon fill="#eb7170" stroke="#eb7170" points="623.793,-187.367 619.705,-177.192 620.189,-183.901 616.586,-180.435 616.586,-180.435 616.586,-180.435 620.189,-183.901 613.466,-183.678 623.793,-187.367 623.793,-187.367"/>
</g>
<!-- PdResourceAudience -->
<g id="node23" class="node"><title>PdResourceAudience</title>
<ellipse fill="none" stroke="black" cx="1375.4" cy="-237" rx="86.4704" ry="18"/>
<text text-anchor="middle" x="1375.4" y="-232.8" font-family="Times,serif" font-size="14.00">PdResourceAudience</text>
</g>
<!-- PdResource&#45;&gt;PdResourceAudience -->
<g id="edge25" class="edge"><title>PdResource&#45;&gt;PdResourceAudience</title>
<path fill="none" stroke="#f2f3f5" d="M808.781,-394.845C947.671,-393.992 1281.11,-388.918 1322.4,-360 1353.43,-338.269 1366.45,-294.293 1371.81,-265.504"/>
<ellipse fill="none" stroke="#f2f3f5" cx="804.716" cy="-394.869" rx="4" ry="4"/>
<polygon fill="#f2f3f5" stroke="#f2f3f5" points="1371.87,-265.157 1377.95,-256.03 1372.69,-260.224 1373.51,-255.292 1373.51,-255.292 1373.51,-255.292 1372.69,-260.224 1369.07,-254.554 1371.87,-265.157 1371.87,-265.157"/>
</g>
<!-- PdResourceDetails -->
<g id="node24" class="node"><title>PdResourceDetails</title>
<ellipse fill="none" stroke="black" cx="77.4001" cy="-310" rx="77.3003" ry="18"/>
<text text-anchor="middle" x="77.4001" y="-305.8" font-family="Times,serif" font-size="14.00">PdResourceDetails</text>
</g>
<!-- PdResource&#45;&gt;PdResourceDetails -->
<g id="edge29" class="edge"><title>PdResource&#45;&gt;PdResourceDetails</title>
<path fill="none" stroke="#ce03a0" d="M687.989,-393.687C543.617,-390.243 186.807,-379.821 136.441,-360 121.935,-354.291 108.353,-343.561 97.8817,-333.595"/>
<ellipse fill="none" stroke="#ce03a0" cx="692.361" cy="-393.79" rx="4" ry="4"/>
<ellipse fill="#ce03a0" stroke="#ce03a0" cx="94.9338" cy="-330.674" rx="4.00002" ry="4.00002"/>
<text text-anchor="middle" x="193.38" y="-348.8" font-family="Times,serif" font-size="14.00">pd_resource_details</text>
</g>
<!-- RecentlyViewedResource -->
<g id="node28" class="node"><title>RecentlyViewedResource</title>
<ellipse fill="none" stroke="black" cx="1765.4" cy="-310" rx="101.335" ry="18"/>
<text text-anchor="middle" x="1765.4" y="-305.8" font-family="Times,serif" font-size="14.00">RecentlyViewedResource</text>
</g>
<!-- PdResource&#45;&gt;RecentlyViewedResource -->
<g id="edge27" class="edge"><title>PdResource&#45;&gt;RecentlyViewedResource</title>
<path fill="none" stroke="#def2af" d="M809.034,-393.725C927.653,-390.818 1198.62,-382.156 1425.4,-360 1514.79,-351.267 1616.66,-335.852 1685.4,-324.639"/>
<ellipse fill="none" stroke="#def2af" cx="804.759" cy="-393.828" rx="4" ry="4"/>
<polygon fill="#def2af" stroke="#def2af" points="1685.43,-324.634 1696.03,-327.457 1690.37,-323.825 1695.3,-323.016 1695.3,-323.016 1695.3,-323.016 1690.37,-323.825 1694.57,-318.576 1685.43,-324.634 1685.43,-324.634"/>
</g>
<!-- RecommendedResource -->
<g id="node30" class="node"><title>RecommendedResource</title>
<ellipse fill="none" stroke="black" cx="2137.4" cy="-310" rx="96.1085" ry="18"/>
<text text-anchor="middle" x="2137.4" y="-305.8" font-family="Times,serif" font-size="14.00">RecommendedResource</text>
</g>
<!-- PdResource&#45;&gt;RecommendedResource -->
<g id="edge28" class="edge"><title>PdResource&#45;&gt;RecommendedResource</title>
<path fill="none" stroke="#2fad59" d="M808.608,-392.779C935.602,-387.963 1240.21,-375.713 1495.4,-360 1689.52,-348.047 1916.31,-329.709 2041.71,-319.185"/>
<ellipse fill="none" stroke="#2fad59" cx="804.499" cy="-392.934" rx="4" ry="4"/>
<polygon fill="#2fad59" stroke="#2fad59" points="2042.08,-319.154 2052.42,-322.801 2047.06,-318.735 2052.04,-318.316 2052.04,-318.316 2052.04,-318.316 2047.06,-318.735 2051.66,-313.832 2042.08,-319.154 2042.08,-319.154"/>
</g>
<!-- Role -->
<g id="node33" class="node"><title>Role</title>
<ellipse fill="none" stroke="black" cx="1585.4" cy="-310" rx="27" ry="18"/>
<text text-anchor="middle" x="1585.4" y="-305.8" font-family="Times,serif" font-size="14.00">Role</text>
</g>
<!-- PdResource&#45;&gt;Role -->
<g id="edge26" class="edge"><title>PdResource&#45;&gt;Role</title>
<path fill="none" stroke="#73250a" d="M811.137,-395.146C924.7,-394.603 1171.66,-389.722 1377.4,-360 1439.51,-351.027 1510.36,-332.516 1551.28,-320.991"/>
<polygon fill="#73250a" stroke="#73250a" points="810.896,-395.146 800.879,-390.684 805.896,-395.165 800.896,-395.184 800.896,-395.184 800.896,-395.184 805.896,-395.165 800.913,-399.684 810.896,-395.146 810.896,-395.146"/>
<polygon fill="#73250a" stroke="#73250a" points="1551.4,-320.959 1562.25,-322.55 1556.2,-319.59 1561.01,-318.222 1561.01,-318.222 1561.01,-318.222 1556.2,-319.59 1559.78,-313.894 1551.4,-320.959 1551.4,-320.959"/>
</g>
<!-- ActsAsTaggableOn::Tagging -->
<g id="node38" class="node"><title>ActsAsTaggableOn::Tagging</title>
<ellipse fill="none" stroke="black" cx="1046.4" cy="-310" rx="113.006" ry="18"/>
<text text-anchor="middle" x="1046.4" y="-305.8" font-family="Times,serif" font-size="14.00">ActsAsTaggableOn::Tagging</text>
</g>
<!-- PdResource&#45;&gt;ActsAsTaggableOn::Tagging -->
<g id="edge30" class="edge"><title>PdResource&#45;&gt;ActsAsTaggableOn::Tagging</title>
<path fill="none" stroke="#4fecef" d="M804.757,-387.375C835.806,-382.002 874.59,-373.336 907.4,-360 918.332,-355.557 919.202,-350.851 929.959,-346 945.017,-339.208 961.751,-333.298 977.727,-328.365"/>
<ellipse fill="none" stroke="#4fecef" cx="800.573" cy="-388.076" rx="4.00001" ry="4.00001"/>
<polygon fill="#4fecef" stroke="#4fecef" points="977.976,-328.291 988.847,-329.732 982.766,-326.856 987.556,-325.421 987.556,-325.421 987.556,-325.421 982.766,-326.856 986.264,-321.11 977.976,-328.291 977.976,-328.291"/>
<text text-anchor="middle" x="954.121" y="-348.8" font-family="Times,serif" font-size="14.00">taggings</text>
</g>
<!-- PdResource&#45;&gt;ActsAsTaggableOn::Tagging -->
<g id="edge32" class="edge"><title>PdResource&#45;&gt;ActsAsTaggableOn::Tagging</title>
<path fill="none" stroke="#65722e" d="M808.709,-393.372C856.094,-390.322 922.951,-382.038 977.4,-360 985.768,-356.613 1002,-345.188 1016.62,-334.221"/>
<ellipse fill="none" stroke="#65722e" cx="804.68" cy="-393.613" rx="4" ry="4"/>
<polygon fill="#65722e" stroke="#65722e" points="1017.01,-333.929 1027.69,-331.465 1020.99,-330.905 1024.97,-327.882 1024.97,-327.882 1024.97,-327.882 1020.99,-330.905 1022.25,-324.298 1017.01,-333.929 1017.01,-333.929"/>
<text text-anchor="middle" x="1036.17" y="-348.8" font-family="Times,serif" font-size="14.00">tag_taggings</text>
</g>
<!-- PdResource&#45;&gt;ActsAsTaggableOn::Tagging -->
<g id="edge34" class="edge"><title>PdResource&#45;&gt;ActsAsTaggableOn::Tagging</title>
<path fill="none" stroke="#696cb0" d="M808.495,-392.77C897.33,-388.848 1055.13,-379.239 1072.4,-360 1078.61,-353.086 1076.44,-344.423 1071.33,-336.312"/>
<ellipse fill="none" stroke="#696cb0" cx="804.379" cy="-392.948" rx="4" ry="4"/>
<polygon fill="#696cb0" stroke="#696cb0" points="1071.2,-336.135 1068.76,-325.443 1068.19,-332.145 1065.17,-328.156 1065.17,-328.156 1065.17,-328.156 1068.19,-332.145 1061.58,-330.868 1071.2,-336.135 1071.2,-336.135"/>
<text text-anchor="middle" x="1139.38" y="-348.8" font-family="Times,serif" font-size="14.00">content_area_taggings</text>
</g>
<!-- PdResource&#45;&gt;ActsAsTaggableOn::Tagging -->
<g id="edge36" class="edge"><title>PdResource&#45;&gt;ActsAsTaggableOn::Tagging</title>
<path fill="none" stroke="#99b2c3" d="M808.951,-394.847C927.262,-393.915 1179.94,-388.563 1206.4,-360 1228.29,-336.378 1201.22,-324.026 1163.5,-317.613"/>
<ellipse fill="none" stroke="#99b2c3" cx="804.67" cy="-394.878" rx="4" ry="4"/>
<polygon fill="#99b2c3" stroke="#99b2c3" points="1163.04,-317.543 1153.83,-311.583 1158.1,-316.787 1153.15,-316.032 1153.15,-316.032 1153.15,-316.032 1158.1,-316.787 1152.47,-320.48 1163.04,-317.543 1163.04,-317.543"/>
<text text-anchor="middle" x="1265.9" y="-348.8" font-family="Times,serif" font-size="14.00">grouping_taggings</text>
</g>
<!-- PdResource&#45;&gt;ActsAsTaggableOn::Tagging -->
<g id="edge38" class="edge"><title>PdResource&#45;&gt;ActsAsTaggableOn::Tagging</title>
<path fill="none" stroke="#9b07a1" d="M749.721,-369.794C751.479,-361.043 755.007,-351.943 761.889,-346 786.207,-325.001 858.374,-316.281 923.935,-312.796"/>
<ellipse fill="none" stroke="#9b07a1" cx="749.105" cy="-374.006" rx="4.00001" ry="4.00001"/>
<polygon fill="#9b07a1" stroke="#9b07a1" points="923.984,-312.793 934.194,-316.794 928.978,-312.546 933.972,-312.299 933.972,-312.299 933.972,-312.299 928.978,-312.546 933.749,-307.805 923.984,-312.793 923.984,-312.793"/>
<text text-anchor="middle" x="833.155" y="-348.8" font-family="Times,serif" font-size="14.00">classroom_area_taggings</text>
</g>
<!-- ActsAsTaggableOn::Tag -->
<g id="node39" class="node"><title>ActsAsTaggableOn::Tag</title>
<ellipse fill="none" stroke="black" cx="435.4" cy="-310" rx="97.0617" ry="18"/>
<text text-anchor="middle" x="435.4" y="-305.8" font-family="Times,serif" font-size="14.00">ActsAsTaggableOn::Tag</text>
</g>
<!-- PdResource&#45;&gt;ActsAsTaggableOn::Tag -->
<g id="edge31" class="edge"><title>PdResource&#45;&gt;ActsAsTaggableOn::Tag</title>
<path fill="none" stroke="#cf2146" d="M685.533,-395.128C560.715,-394.724 291.174,-390.309 262.972,-360 258.734,-355.445 259.034,-350.818 262.972,-346 266.196,-342.056 312.888,-332.717 356.867,-324.678"/>
<polygon fill="#cf2146" stroke="#cf2146" points="685.708,-395.129 695.697,-399.653 690.708,-395.141 695.708,-395.153 695.708,-395.153 695.708,-395.153 690.708,-395.141 695.719,-390.653 685.708,-395.129 685.708,-395.129"/>
<polygon fill="#cf2146" stroke="#cf2146" points="356.939,-324.665 367.582,-327.307 361.859,-323.772 366.779,-322.879 366.779,-322.879 366.779,-322.879 361.859,-323.772 365.975,-318.451 356.939,-324.665 356.939,-324.665"/>
<text text-anchor="middle" x="290.614" y="-348.8" font-family="Times,serif" font-size="14.00">base_tags</text>
</g>
<!-- PdResource&#45;&gt;ActsAsTaggableOn::Tag -->
<g id="edge33" class="edge"><title>PdResource&#45;&gt;ActsAsTaggableOn::Tag</title>
<path fill="none" stroke="#e423c1" d="M685.85,-394.18C577.369,-392.103 363.672,-384.867 340.848,-360 327.617,-345.584 341.487,-334.712 362.311,-326.919"/>
<polygon fill="#e423c1" stroke="#e423c1" points="686.012,-394.183 695.928,-398.864 691.011,-394.274 696.01,-394.365 696.01,-394.365 696.01,-394.365 691.011,-394.274 696.092,-389.866 686.012,-394.183 686.012,-394.183"/>
<polygon fill="#e423c1" stroke="#e423c1" points="362.475,-326.864 373.389,-327.922 367.211,-325.262 371.948,-323.66 371.948,-323.66 371.948,-323.66 367.211,-325.262 370.506,-319.397 362.475,-326.864 362.475,-326.864"/>
<text text-anchor="middle" x="352.676" y="-348.8" font-family="Times,serif" font-size="14.00">tags</text>
</g>
<!-- PdResource&#45;&gt;ActsAsTaggableOn::Tag -->
<g id="edge35" class="edge"><title>PdResource&#45;&gt;ActsAsTaggableOn::Tag</title>
<path fill="none" stroke="#98d4ab" d="M686.006,-393.434C587.879,-390.319 406.564,-381.672 386.889,-360 378.746,-351.03 384.623,-341.495 394.707,-333.242"/>
<polygon fill="#98d4ab" stroke="#98d4ab" points="686.105,-393.437 695.962,-398.242 691.103,-393.59 696.1,-393.744 696.1,-393.744 696.1,-393.744 691.103,-393.59 696.239,-389.246 686.105,-393.437 686.105,-393.437"/>
<polygon fill="#98d4ab" stroke="#98d4ab" points="394.963,-333.058 405.707,-330.864 399.019,-330.135 403.076,-327.213 403.076,-327.213 403.076,-327.213 399.019,-330.135 400.445,-323.562 394.963,-333.058 394.963,-333.058"/>
<text text-anchor="middle" x="423.155" y="-348.8" font-family="Times,serif" font-size="14.00">content_area</text>
</g>
<!-- PdResource&#45;&gt;ActsAsTaggableOn::Tag -->
<g id="edge37" class="edge"><title>PdResource&#45;&gt;ActsAsTaggableOn::Tag</title>
<path fill="none" stroke="#06fb39" d="M686.944,-391.681C619.631,-387.218 516.606,-377.715 481.848,-360 470.702,-354.319 460.776,-344.857 452.99,-335.755"/>
<polygon fill="#06fb39" stroke="#06fb39" points="687.035,-391.687 696.726,-396.819 692.025,-392.008 697.015,-392.329 697.015,-392.329 697.015,-392.329 692.025,-392.008 697.304,-387.838 687.035,-391.687 687.035,-391.687"/>
<polygon fill="#06fb39" stroke="#06fb39" points="452.985,-335.749 450.23,-325.135 449.854,-331.851 446.722,-327.953 446.722,-327.953 446.722,-327.953 449.854,-331.851 443.214,-330.771 452.985,-335.749 452.985,-335.749"/>
<text text-anchor="middle" x="507.676" y="-348.8" font-family="Times,serif" font-size="14.00">grouping</text>
</g>
<!-- PdResource&#45;&gt;ActsAsTaggableOn::Tag -->
<g id="edge39" class="edge"><title>PdResource&#45;&gt;ActsAsTaggableOn::Tag</title>
<path fill="none" stroke="#5a74cf" d="M687.735,-389.797C648.908,-385.071 597.999,-376.243 555.331,-360 544.171,-355.752 543.167,-351.164 532.4,-346 519.67,-339.895 505.579,-334.229 492.172,-329.313"/>
<polygon fill="#5a74cf" stroke="#5a74cf" points="687.906,-389.817 697.322,-395.438 692.873,-390.392 697.84,-390.968 697.84,-390.968 697.84,-390.968 692.873,-390.392 698.358,-386.498 687.906,-389.817 687.906,-389.817"/>
<polygon fill="#5a74cf" stroke="#5a74cf" points="491.975,-329.242 484.078,-321.633 487.268,-327.556 482.561,-325.869 482.561,-325.869 482.561,-325.869 487.268,-327.556 481.043,-330.106 491.975,-329.242 491.975,-329.242"/>
<text text-anchor="middle" x="598.935" y="-348.8" font-family="Times,serif" font-size="14.00">classroom_area</text>
</g>
<!-- PdResourceDetails&#45;&gt;DetailsChartRow -->
<g id="edge40" class="edge"><title>PdResourceDetails&#45;&gt;DetailsChartRow</title>
<path fill="none" stroke="#f257f5" d="M77.4001,-283.791C77.4001,-277.832 77.4001,-271.45 77.4001,-265.399"/>
<ellipse fill="none" stroke="#f257f5" cx="77.4001" cy="-287.813" rx="4" ry="4"/>
<polygon fill="#f257f5" stroke="#f257f5" points="77.4002,-265.029 81.9001,-255.029 77.4001,-260.029 77.4001,-255.029 77.4001,-255.029 77.4001,-255.029 77.4001,-260.029 72.9001,-255.029 77.4002,-265.029 77.4002,-265.029"/>
</g>
<!-- PdType -->
<g id="node25" class="node"><title>PdType</title>
<ellipse fill="none" stroke="black" cx="904.4" cy="-482" rx="36.9999" ry="18"/>
<text text-anchor="middle" x="904.4" y="-477.8" font-family="Times,serif" font-size="14.00">PdType</text>
</g>
<!-- PdType&#45;&gt;PdResource -->
<g id="edge41" class="edge"><title>PdType&#45;&gt;PdResource</title>
<path fill="none" stroke="#009269" d="M873.027,-464.107C847.408,-450.312 811.189,-430.809 784.394,-416.381"/>
<ellipse fill="none" stroke="#009269" cx="876.845" cy="-466.163" rx="4.00002" ry="4.00002"/>
<polygon fill="#009269" stroke="#009269" points="784.147,-416.248 777.476,-407.545 779.745,-413.878 775.342,-411.507 775.342,-411.507 775.342,-411.507 779.745,-413.878 773.209,-415.469 784.147,-416.248 784.147,-416.248"/>
</g>
<!-- Phone -->
<g id="node26" class="node"><title>Phone</title>
<ellipse fill="none" stroke="black" cx="2491.4" cy="-482" rx="32.4324" ry="18"/>
<text text-anchor="middle" x="2491.4" y="-477.8" font-family="Times,serif" font-size="14.00">Phone</text>
</g>
<!-- Question -->
<g id="node27" class="node"><title>Question</title>
<ellipse fill="none" stroke="black" cx="1227.4" cy="-568" rx="42.0784" ry="18"/>
<text text-anchor="middle" x="1227.4" y="-563.8" font-family="Times,serif" font-size="14.00">Question</text>
</g>
<!-- Question&#45;&gt;Answer -->
<g id="edge42" class="edge"><title>Question&#45;&gt;Answer</title>
<path fill="none" stroke="#ed5062" d="M1226.19,-541.665C1225.73,-531.835 1225.19,-520.552 1224.71,-510.523"/>
<ellipse fill="none" stroke="#ed5062" cx="1226.4" cy="-546.006" rx="4" ry="4"/>
<polygon fill="#ed5062" stroke="#ed5062" points="1224.7,-510.25 1228.72,-500.048 1224.46,-505.256 1224.22,-500.262 1224.22,-500.262 1224.22,-500.262 1224.46,-505.256 1219.73,-500.476 1224.7,-510.25 1224.7,-510.25"/>
</g>
<!-- RecommendationGroup -->
<g id="node29" class="node"><title>RecommendationGroup</title>
<ellipse fill="none" stroke="black" cx="2186.4" cy="-482" rx="95.1654" ry="18"/>
<text text-anchor="middle" x="2186.4" y="-477.8" font-family="Times,serif" font-size="14.00">RecommendationGroup</text>
</g>
<!-- RecommendationGroup&#45;&gt;Comment -->
<g id="edge47" class="edge"><title>RecommendationGroup&#45;&gt;Comment</title>
<path fill="none" stroke="#32be7d" d="M2204.83,-457.42C2231.59,-420.094 2274.67,-346.093 2242.4,-292 2235.43,-280.318 2206.96,-265.554 2182.17,-254.418"/>
<ellipse fill="none" stroke="#32be7d" cx="2202.41" cy="-460.723" rx="4.00002" ry="4.00002"/>
<polygon fill="#32be7d" stroke="#32be7d" points="2182.05,-254.368 2174.71,-246.222 2177.48,-252.354 2172.9,-250.341 2172.9,-250.341 2172.9,-250.341 2177.48,-252.354 2171.09,-254.46 2182.05,-254.368 2182.05,-254.368"/>
</g>
<!-- RecommendationGroup&#45;&gt;PdResource -->
<g id="edge46" class="edge"><title>RecommendationGroup&#45;&gt;PdResource</title>
<path fill="none" stroke="#38a4e9" d="M2087.69,-474.726C1936.96,-465.193 1640.35,-446.624 1388.4,-432 1176.18,-419.682 924.296,-406.258 810.125,-400.238"/>
<polygon fill="#38a4e9" stroke="#38a4e9" points="2087.87,-474.737 2097.56,-479.859 2092.86,-475.053 2097.85,-475.368 2097.85,-475.368 2097.85,-475.368 2092.86,-475.053 2098.13,-470.877 2087.87,-474.737 2087.87,-474.737"/>
<polygon fill="#38a4e9" stroke="#38a4e9" points="809.827,-400.222 800.077,-395.202 804.834,-399.959 799.84,-399.696 799.84,-399.696 799.84,-399.696 804.834,-399.959 799.604,-404.19 809.827,-400.222 809.827,-400.222"/>
</g>
<!-- RecommendationGroup&#45;&gt;RecommendedResource -->
<g id="edge44" class="edge"><title>RecommendationGroup&#45;&gt;RecommendedResource</title>
<path fill="none" stroke="#23a89f" d="M2179.16,-455.895C2170.04,-424.256 2154.44,-370.107 2145.1,-337.723"/>
<ellipse fill="none" stroke="#23a89f" cx="2180.32" cy="-459.92" rx="4.00001" ry="4.00001"/>
<polygon fill="#23a89f" stroke="#23a89f" points="2145.08,-337.638 2146.63,-326.783 2143.69,-332.833 2142.31,-328.029 2142.31,-328.029 2142.31,-328.029 2143.69,-332.833 2137.98,-329.275 2145.08,-337.638 2145.08,-337.638"/>
</g>
<!-- RecommendedUser -->
<g id="node31" class="node"><title>RecommendedUser</title>
<ellipse fill="none" stroke="black" cx="2285.4" cy="-237" rx="79.6972" ry="18"/>
<text text-anchor="middle" x="2285.4" y="-232.8" font-family="Times,serif" font-size="14.00">RecommendedUser</text>
</g>
<!-- RecommendationGroup&#45;&gt;RecommendedUser -->
<g id="edge43" class="edge"><title>RecommendationGroup&#45;&gt;RecommendedUser</title>
<path fill="none" stroke="#7a74de" d="M2216.18,-459.311C2221.15,-455.136 2226.09,-450.618 2230.4,-446 2242.17,-433.378 2245.24,-429.702 2252.4,-414 2274.85,-364.786 2282.03,-301.164 2284.32,-265.457"/>
<ellipse fill="none" stroke="#7a74de" cx="2213" cy="-461.88" rx="4.00002" ry="4.00002"/>
<polygon fill="#7a74de" stroke="#7a74de" points="2284.33,-265.302 2289.38,-255.569 2284.61,-260.31 2284.89,-255.318 2284.89,-255.318 2284.89,-255.318 2284.61,-260.31 2280.4,-255.067 2284.33,-265.302 2284.33,-265.302"/>
</g>
<!-- RecommendedUserResource -->
<g id="node32" class="node"><title>RecommendedUserResource</title>
<ellipse fill="none" stroke="black" cx="2339.4" cy="-164" rx="112.505" ry="18"/>
<text text-anchor="middle" x="2339.4" y="-159.8" font-family="Times,serif" font-size="14.00">RecommendedUserResource</text>
</g>
<!-- RecommendationGroup&#45;&gt;RecommendedUserResource -->
<g id="edge45" class="edge"><title>RecommendationGroup&#45;&gt;RecommendedUserResource</title>
<path fill="none" stroke="#296917" d="M2289.04,-476.373C2341.08,-467.874 2393.4,-446.917 2393.4,-397 2393.4,-397 2393.4,-397 2393.4,-236 2393.4,-217.747 2381.95,-201.251 2369.6,-188.763"/>
<polygon fill="#296917" stroke="#296917" points="2288.89,-476.396 2278.34,-473.415 2283.95,-477.131 2279,-477.866 2279,-477.866 2279,-477.866 2283.95,-477.131 2279.66,-482.317 2288.89,-476.396 2288.89,-476.396"/>
<polygon fill="#296917" stroke="#296917" points="2369.58,-188.746 2365.39,-178.615 2365.94,-185.319 2362.3,-181.891 2362.3,-181.891 2362.3,-181.891 2365.94,-185.319 2359.22,-185.167 2369.58,-188.746 2369.58,-188.746"/>
</g>
<!-- RecommendedResource&#45;&gt;Comment -->
<g id="edge50" class="edge"><title>RecommendedResource&#45;&gt;Comment</title>
<path fill="none" stroke="#415707" d="M2139.18,-283.791C2139.59,-277.832 2140.04,-271.45 2140.47,-265.399"/>
<ellipse fill="none" stroke="#415707" cx="2138.89" cy="-287.823" rx="4" ry="4"/>
<polygon fill="#415707" stroke="#415707" points="2140.5,-265.004 2145.69,-255.345 2140.85,-260.016 2141.2,-255.029 2141.2,-255.029 2141.2,-255.029 2140.85,-260.016 2136.71,-254.713 2140.5,-265.004 2140.5,-265.004"/>
</g>
<!-- RecommendedResource&#45;&gt;RecommendedUser -->
<g id="edge49" class="edge"><title>RecommendedResource&#45;&gt;RecommendedUser</title>
<path fill="none" stroke="#90cb15" d="M2179.92,-288.604C2200.02,-278.961 2223.93,-267.49 2243.9,-257.909"/>
<polygon fill="#90cb15" stroke="#90cb15" points="2179.63,-288.741 2168.67,-289.009 2175.12,-290.904 2170.61,-293.066 2170.61,-293.066 2170.61,-293.066 2175.12,-290.904 2172.56,-297.123 2179.63,-288.741 2179.63,-288.741"/>
<polygon fill="#90cb15" stroke="#90cb15" points="2244.04,-257.84 2255.01,-257.572 2248.55,-255.677 2253.06,-253.514 2253.06,-253.514 2253.06,-253.514 2248.55,-255.677 2251.11,-249.457 2244.04,-257.84 2244.04,-257.84"/>
</g>
<!-- RecommendedResource&#45;&gt;RecommendedUserResource -->
<g id="edge48" class="edge"><title>RecommendedResource&#45;&gt;RecommendedUserResource</title>
<path fill="none" stroke="#4b0957" d="M2111.05,-286.676C2091.69,-267.581 2071.48,-239.946 2088.4,-219 2106.87,-196.137 2172.91,-182.5 2232.62,-174.65"/>
<ellipse fill="none" stroke="#4b0957" cx="2114.08" cy="-289.557" rx="4.00002" ry="4.00002"/>
<polygon fill="#4b0957" stroke="#4b0957" points="2232.98,-174.603 2243.47,-177.809 2237.94,-173.974 2242.9,-173.345 2242.9,-173.345 2242.9,-173.345 2237.94,-173.974 2242.34,-168.881 2232.98,-174.603 2232.98,-174.603"/>
</g>
<!-- RecommendedUser&#45;&gt;RecommendedUserResource -->
<g id="edge51" class="edge"><title>RecommendedUser&#45;&gt;RecommendedUserResource</title>
<path fill="none" stroke="#d96bd7" d="M2303.21,-212.582C2308.63,-205.455 2314.61,-197.59 2320.13,-190.342"/>
<ellipse fill="none" stroke="#d96bd7" cx="2300.62" cy="-215.99" rx="4.00002" ry="4.00002"/>
<polygon fill="#d96bd7" stroke="#d96bd7" points="2320.27,-190.158 2329.9,-184.923 2323.29,-186.178 2326.32,-182.198 2326.32,-182.198 2326.32,-182.198 2323.29,-186.178 2322.74,-179.474 2320.27,-190.158 2320.27,-190.158"/>
</g>
<!-- Role&#45;&gt;OnboardingInfo -->
<g id="edge55" class="edge"><title>Role&#45;&gt;OnboardingInfo</title>
<path fill="none" stroke="#4395b4" d="M1618.13,-300.796C1629.86,-297.922 1643.2,-294.732 1655.4,-292 1723.77,-276.684 1802.52,-260.737 1855.89,-250.18"/>
<ellipse fill="none" stroke="#4395b4" cx="1614.18" cy="-301.768" rx="4.00001" ry="4.00001"/>
<polygon fill="#4395b4" stroke="#4395b4" points="1856.08,-250.145 1866.76,-252.623 1860.98,-249.176 1865.89,-248.208 1865.89,-248.208 1865.89,-248.208 1860.98,-249.176 1865.02,-243.793 1856.08,-250.145 1856.08,-250.145"/>
</g>
<!-- Role&#45;&gt;PdResourceAudience -->
<g id="edge54" class="edge"><title>Role&#45;&gt;PdResourceAudience</title>
<path fill="none" stroke="#f2c5d8" d="M1553.98,-298.376C1520.77,-287.147 1467.81,-269.243 1428.17,-255.842"/>
<ellipse fill="none" stroke="#f2c5d8" cx="1557.93" cy="-299.712" rx="4.00001" ry="4.00001"/>
<polygon fill="#f2c5d8" stroke="#f2c5d8" points="1428.13,-255.828 1420.1,-248.363 1423.4,-254.227 1418.66,-252.625 1418.66,-252.625 1418.66,-252.625 1423.4,-254.227 1417.22,-256.888 1428.13,-255.828 1428.13,-255.828"/>
</g>
<!-- Role&#45;&gt;User -->
<g id="edge53" class="edge"><title>Role&#45;&gt;User</title>
<path fill="none" stroke="#7fceb6" d="M1590.67,-337.934C1598.96,-379.685 1615.93,-462.465 1633.4,-532 1634.07,-534.666 1634.8,-537.437 1635.55,-540.2"/>
<polygon fill="#7fceb6" stroke="#7fceb6" points="1590.64,-337.809 1593.12,-327.127 1589.67,-332.904 1588.7,-327.999 1588.7,-327.999 1588.7,-327.999 1589.67,-332.904 1584.29,-328.872 1590.64,-337.809 1590.64,-337.809"/>
<polygon fill="#7fceb6" stroke="#7fceb6" points="1635.59,-540.342 1633.96,-551.186 1636.94,-545.156 1638.3,-549.97 1638.3,-549.97 1638.3,-549.97 1636.94,-545.156 1642.63,-548.753 1635.59,-540.342 1635.59,-540.342"/>
</g>
<!-- Role&#45;&gt;UserRoleNode -->
<g id="edge52" class="edge"><title>Role&#45;&gt;UserRoleNode</title>
<path fill="none" stroke="#b75506" d="M1585.4,-283.791C1585.4,-277.832 1585.4,-271.45 1585.4,-265.399"/>
<ellipse fill="none" stroke="#b75506" cx="1585.4" cy="-287.813" rx="4" ry="4"/>
<polygon fill="#b75506" stroke="#b75506" points="1585.4,-265.029 1589.9,-255.029 1585.4,-260.029 1585.4,-255.029 1585.4,-255.029 1585.4,-255.029 1585.4,-260.029 1580.9,-255.029 1585.4,-265.029 1585.4,-265.029"/>
</g>
<!-- StarterPackage -->
<g id="node34" class="node"><title>StarterPackage</title>
<ellipse fill="none" stroke="black" cx="1081.4" cy="-904.5" rx="63.2837" ry="18"/>
<text text-anchor="middle" x="1081.4" y="-900.3" font-family="Times,serif" font-size="14.00">StarterPackage</text>
</g>
<!-- StarterPackage&#45;&gt;Account -->
<g id="edge56" class="edge"><title>StarterPackage&#45;&gt;Account</title>
<path fill="none" stroke="#286240" d="M1081.74,-878.446C1083.27,-864.192 1087.56,-847.036 1098.69,-836 1105.63,-829.121 1155.63,-817.828 1194.3,-809.936"/>
<ellipse fill="none" stroke="#286240" cx="1081.44" cy="-882.446" rx="4" ry="4"/>
<polygon fill="#286240" stroke="#286240" points="1194.55,-809.885 1205.25,-812.319 1199.46,-808.896 1204.36,-807.907 1204.36,-807.907 1204.36,-807.907 1199.46,-808.896 1203.47,-803.496 1194.55,-809.885 1194.55,-809.885"/>
<text text-anchor="middle" x="1159.26" y="-838.8" font-family="Times,serif" font-size="14.00">accounts_for_teacher</text>
</g>
<!-- StarterPackage&#45;&gt;Account -->
<g id="edge57" class="edge"><title>StarterPackage&#45;&gt;Account</title>
<path fill="none" stroke="#63d24a" d="M1139.91,-891.421C1166.54,-883.427 1196.85,-870.505 1218.4,-850 1224.84,-843.876 1229.53,-835.525 1232.88,-827.451"/>
<ellipse fill="none" stroke="#63d24a" cx="1135.99" cy="-892.545" rx="4.00001" ry="4.00001"/>
<polygon fill="#63d24a" stroke="#63d24a" points="1232.93,-827.312 1240.57,-819.443 1234.64,-822.611 1236.34,-817.91 1236.34,-817.91 1236.34,-817.91 1234.64,-822.611 1232.11,-816.377 1232.93,-827.312 1232.93,-827.312"/>
<text text-anchor="middle" x="1284.37" y="-838.8" font-family="Times,serif" font-size="14.00">accounts_for_coach</text>
</g>
<!-- StarterPackage&#45;&gt;PackageResource -->
<g id="edge58" class="edge"><title>StarterPackage&#45;&gt;PackageResource</title>
<path fill="none" stroke="#0d96d7" d="M1077.17,-878.017C1074.66,-862.84 1071.46,-843.589 1068.9,-828.13"/>
<ellipse fill="none" stroke="#0d96d7" cx="1077.86" cy="-882.166" rx="4.00001" ry="4.00001"/>
<polygon fill="#0d96d7" stroke="#0d96d7" points="1068.88,-827.996 1071.68,-817.395 1068.06,-823.064 1067.24,-818.131 1067.24,-818.131 1067.24,-818.131 1068.06,-823.064 1062.8,-818.867 1068.88,-827.996 1068.88,-827.996"/>
</g>
<!-- StarterPackage&#45;&gt;PdResource -->
<g id="edge59" class="edge"><title>StarterPackage&#45;&gt;PdResource</title>
<path fill="none" stroke="#88fb76" d="M1045.31,-883.517C1034.06,-877.888 1021.44,-872.17 1009.4,-868 941.572,-844.501 693.4,-872.783 693.4,-801 693.4,-801 693.4,-801 693.4,-481 693.4,-457.844 708.21,-436.1 722.46,-420.539"/>
<polygon fill="#88fb76" stroke="#88fb76" points="1045.5,-883.617 1052.34,-892.191 1049.95,-885.903 1054.4,-888.189 1054.4,-888.189 1054.4,-888.189 1049.95,-885.903 1056.46,-884.186 1045.5,-883.617 1045.5,-883.617"/>
<polygon fill="#88fb76" stroke="#88fb76" points="722.818,-420.17 733.01,-416.123 726.299,-416.58 729.78,-412.991 729.78,-412.991 729.78,-412.991 726.299,-416.58 726.549,-409.858 722.818,-420.17 722.818,-420.17"/>
</g>
<!-- User&#45;&gt;Answer -->
<g id="edge78" class="edge"><title>User&#45;&gt;Answer</title>
<path fill="none" stroke="#f0bbda" d="M1606.11,-566.498C1524.71,-564.916 1333.73,-558.416 1275.4,-532 1262.86,-526.323 1251.43,-516.364 1242.49,-506.901"/>
<polygon fill="#f0bbda" stroke="#f0bbda" points="1606.39,-566.503 1616.31,-571.182 1611.39,-566.593 1616.39,-566.683 1616.39,-566.683 1616.39,-566.683 1611.39,-566.593 1616.47,-562.184 1606.39,-566.503 1606.39,-566.503"/>
<polygon fill="#f0bbda" stroke="#f0bbda" points="1242.26,-506.639 1238.97,-496.179 1238.93,-502.906 1235.61,-499.173 1235.61,-499.173 1235.61,-499.173 1238.93,-502.906 1232.25,-502.167 1242.26,-506.639 1242.26,-506.639"/>
</g>
<!-- User&#45;&gt;ApiToken -->
<g id="edge64" class="edge"><title>User&#45;&gt;ApiToken</title>
<path fill="none" stroke="#34fd74" d="M1637.81,-541.857C1637.21,-533.887 1637.85,-525.266 1641.4,-518 1644.07,-512.532 1648.06,-507.671 1652.57,-503.442"/>
<ellipse fill="none" stroke="#34fd74" cx="1638.31" cy="-545.874" rx="4.00001" ry="4.00001"/>
<polygon fill="#34fd74" stroke="#34fd74" points="1652.8,-503.261 1663.38,-500.404 1656.66,-500.092 1660.53,-496.923 1660.53,-496.923 1660.53,-496.923 1656.66,-500.092 1657.68,-493.443 1652.8,-503.261 1652.8,-503.261"/>
</g>
<!-- User&#45;&gt;CoachTeacher -->
<g id="edge72" class="edge"><title>User&#45;&gt;CoachTeacher</title>
<path fill="none" stroke="#cf2f10" d="M1678.23,-563.45C1705.45,-559.334 1743.25,-550.555 1771.4,-532 1780.66,-525.897 1788.73,-516.879 1795.09,-508.237"/>
<ellipse fill="none" stroke="#cf2f10" cx="1674.11" cy="-564.028" rx="4.00001" ry="4.00001"/>
<polygon fill="#cf2f10" stroke="#cf2f10" points="1795.2,-508.083 1804.57,-502.392 1798.03,-503.962 1800.86,-499.842 1800.86,-499.842 1800.86,-499.842 1798.03,-503.962 1797.16,-497.293 1795.2,-508.083 1795.2,-508.083"/>
<text text-anchor="middle" x="1838.48" y="-520.8" font-family="Times,serif" font-size="14.00">teachers_as_coach</text>
</g>
<!-- User&#45;&gt;CoachTeacher -->
<g id="edge74" class="edge"><title>User&#45;&gt;CoachTeacher</title>
<path fill="none" stroke="#9e59a9" d="M1645.17,-541.731C1647.01,-533.133 1650.5,-524.152 1657.03,-518 1684.61,-491.992 1703.45,-508.474 1740.4,-500 1745.3,-498.876 1750.39,-497.685 1755.49,-496.477"/>
<ellipse fill="none" stroke="#9e59a9" cx="1644.51" cy="-545.804" rx="4.00001" ry="4.00001"/>
<polygon fill="#9e59a9" stroke="#9e59a9" points="1755.53,-496.468 1766.3,-498.521 1760.39,-495.306 1765.25,-494.144 1765.25,-494.144 1765.25,-494.144 1760.39,-495.306 1764.21,-489.767 1755.53,-496.468 1755.53,-496.468"/>
<text text-anchor="middle" x="1711.59" y="-520.8" font-family="Times,serif" font-size="14.00">coaches_as_teacher</text>
</g>
<!-- User&#45;&gt;Group -->
<g id="edge62" class="edge"><title>User&#45;&gt;Group</title>
<path fill="none" stroke="#3b87a1" d="M1609.52,-556.628C1589.47,-550.179 1563.7,-541.353 1541.4,-532 1528.57,-526.619 1526.52,-522.622 1513.4,-518 1477.8,-505.462 1466.47,-511.122 1430.4,-500 1427.97,-499.25 1425.48,-498.417 1422.98,-497.535"/>
<polygon fill="#3b87a1" stroke="#3b87a1" points="1609.62,-556.659 1617.79,-563.973 1614.39,-558.172 1619.16,-559.684 1619.16,-559.684 1619.16,-559.684 1614.39,-558.172 1620.52,-555.395 1609.62,-556.659 1609.62,-556.659"/>
<polygon fill="#3b87a1" stroke="#3b87a1" points="1422.83,-497.477 1415.05,-489.747 1418.15,-495.718 1413.47,-493.959 1413.47,-493.959 1413.47,-493.959 1418.15,-495.718 1411.88,-498.172 1422.83,-497.477 1422.83,-497.477"/>
</g>
<!-- User&#45;&gt;Group -->
<g id="edge63" class="edge"><title>User&#45;&gt;Group</title>
<path fill="none" stroke="#820c32" d="M1608.4,-565.342C1534.85,-561.499 1369.67,-550.844 1352.97,-532 1344.97,-522.986 1351.27,-512.208 1360.64,-503.058"/>
<ellipse fill="none" stroke="#820c32" cx="1612.48" cy="-565.551" rx="4" ry="4"/>
<polygon fill="#820c32" stroke="#820c32" points="1360.7,-503.012 1371.19,-499.825 1364.46,-499.724 1368.23,-496.435 1368.23,-496.435 1368.23,-496.435 1364.46,-499.724 1365.27,-493.045 1360.7,-503.012 1360.7,-503.012"/>
<text text-anchor="middle" x="1393.62" y="-520.8" font-family="Times,serif" font-size="14.00">owned_groups</text>
</g>
<!-- User&#45;&gt;GroupMembership -->
<g id="edge61" class="edge"><title>User&#45;&gt;GroupMembership</title>
<path fill="none" stroke="#ed5bfb" d="M1615.59,-551.967C1607.11,-546.47 1598.24,-539.687 1591.4,-532 1568.81,-506.6 1574.12,-493.004 1556.4,-464 1547.61,-449.615 1536.74,-434.28 1527.58,-421.917"/>
<ellipse fill="none" stroke="#ed5bfb" cx="1619.17" cy="-554.173" rx="4.00002" ry="4.00002"/>
<polygon fill="#ed5bfb" stroke="#ed5bfb" points="1527.55,-421.879 1525.14,-411.179 1524.55,-417.879 1521.55,-413.88 1521.55,-413.88 1521.55,-413.88 1524.55,-417.879 1517.95,-416.581 1527.55,-421.879 1527.55,-421.879"/>
</g>
<!-- User&#45;&gt;OnboardingInfo -->
<g id="edge67" class="edge"><title>User&#45;&gt;OnboardingInfo</title>
<path fill="none" stroke="#854046" d="M1680.63,-565.706C1748.33,-562.829 1888.57,-554.299 1931.4,-532 1957.36,-518.483 1975.4,-512.269 1975.4,-483 1975.4,-483 1975.4,-483 1975.4,-309 1975.4,-290.104 1962.97,-273.374 1949.72,-260.907"/>
<polygon fill="#854046" stroke="#854046" points="1680.41,-565.715 1670.23,-561.625 1675.41,-565.918 1670.41,-566.121 1670.41,-566.121 1670.41,-566.121 1675.41,-565.918 1670.6,-570.617 1680.41,-565.715 1680.41,-565.715"/>
<polygon fill="#854046" stroke="#854046" points="1949.44,-260.66 1944.88,-250.689 1945.68,-257.368 1941.91,-254.076 1941.91,-254.076 1941.91,-254.076 1945.68,-257.368 1938.95,-257.462 1949.44,-260.66 1949.44,-260.66"/>
</g>
<!-- User&#45;&gt;OnboardingStatus -->
<g id="edge66" class="edge"><title>User&#45;&gt;OnboardingStatus</title>
<path fill="none" stroke="#13612c" d="M1680.34,-566.062C1752.56,-563.714 1909.6,-555.939 1957.4,-532 2000.2,-510.564 2013.4,-487.868 2013.4,-440 2013.4,-440 2013.4,-440 2013.4,-236 2013.4,-211.388 1992.69,-194.281 1970.61,-183.036"/>
<polygon fill="#13612c" stroke="#13612c" points="1680.32,-566.062 1670.18,-561.872 1675.32,-566.216 1670.32,-566.37 1670.32,-566.37 1670.32,-566.37 1675.32,-566.216 1670.46,-570.868 1680.32,-566.062 1680.32,-566.062"/>
<polygon fill="#13612c" stroke="#13612c" points="1970.5,-182.984 1963.37,-174.647 1965.97,-180.851 1961.45,-178.717 1961.45,-178.717 1961.45,-178.717 1965.97,-180.851 1959.53,-182.787 1970.5,-182.984 1970.5,-182.984"/>
</g>
<!-- User&#45;&gt;Phone -->
<g id="edge60" class="edge"><title>User&#45;&gt;Phone</title>
<path fill="none" stroke="#d9e231" d="M1678.69,-567.019C1824.45,-566.887 2375.15,-564.241 2445.4,-532 2457.05,-526.654 2467.17,-516.877 2474.93,-507.454"/>
<ellipse fill="none" stroke="#d9e231" cx="1674.47" cy="-567.022" rx="4" ry="4"/>
<polygon fill="#d9e231" stroke="#d9e231" points="2475.03,-507.319 2484.69,-502.124 2478.07,-503.352 2481.12,-499.385 2481.12,-499.385 2481.12,-499.385 2478.07,-503.352 2477.55,-496.646 2475.03,-507.319 2475.03,-507.319"/>
</g>
<!-- User&#45;&gt;RecentlyViewedResource -->
<g id="edge76" class="edge"><title>User&#45;&gt;RecentlyViewedResource</title>
<path fill="none" stroke="#72fb58" d="M1678.85,-567.507C1741.28,-567.56 1866.88,-563.62 1894.4,-532 1950.18,-467.9 1850.6,-376.217 1796.67,-333.95"/>
<ellipse fill="none" stroke="#72fb58" cx="1674.47" cy="-567.491" rx="4" ry="4"/>
<polygon fill="#72fb58" stroke="#72fb58" points="1796.36,-333.709 1791.19,-324.039 1792.4,-330.655 1788.44,-327.602 1788.44,-327.602 1788.44,-327.602 1792.4,-330.655 1785.69,-331.166 1796.36,-333.709 1796.36,-333.709"/>
</g>
<!-- User&#45;&gt;RecommendationGroup -->
<g id="edge68" class="edge"><title>User&#45;&gt;RecommendationGroup</title>
<path fill="none" stroke="#e28415" d="M1678.77,-565.673C1758.69,-562.348 1951.06,-552.423 2012.4,-532 2023.73,-528.229 2024.27,-522.516 2035.32,-518 2057.79,-508.821 2083.16,-501.767 2106.6,-496.479"/>
<ellipse fill="none" stroke="#e28415" cx="1674.49" cy="-565.848" rx="4" ry="4"/>
<polygon fill="#e28415" stroke="#e28415" points="2106.75,-496.448 2117.48,-498.717 2111.63,-495.384 2116.52,-494.32 2116.52,-494.32 2116.52,-494.32 2111.63,-495.384 2115.56,-489.923 2106.75,-496.448 2106.75,-496.448"/>
<text text-anchor="middle" x="2098.94" y="-520.8" font-family="Times,serif" font-size="14.00">recommendations_sent</text>
</g>
<!-- User&#45;&gt;RecommendationGroup -->
<g id="edge70" class="edge"><title>User&#45;&gt;RecommendationGroup</title>
<path fill="none" stroke="#07a41f" d="M1680.54,-566.688C1793.06,-565.445 2124.93,-559.464 2164.4,-532 2171.88,-526.794 2176.86,-518.419 2180.15,-510.055"/>
<polygon fill="#07a41f" stroke="#07a41f" points="1680.35,-566.69 1670.3,-562.295 1675.35,-566.742 1670.35,-566.795 1670.35,-566.795 1670.35,-566.795 1675.35,-566.742 1670.4,-571.294 1680.35,-566.69 1680.35,-566.69"/>
<polygon fill="#07a41f" stroke="#07a41f" points="2180.19,-509.938 2187.57,-501.828 2181.74,-505.184 2183.29,-500.431 2183.29,-500.431 2183.29,-500.431 2181.74,-505.184 2179.01,-499.035 2180.19,-509.938 2180.19,-509.938"/>
<text text-anchor="middle" x="2252.37" y="-520.8" font-family="Times,serif" font-size="14.00">recommendations_received</text>
</g>
<!-- User&#45;&gt;RecommendedUser -->
<g id="edge69" class="edge"><title>User&#45;&gt;RecommendedUser</title>
<path fill="none" stroke="#9efab9" d="M1678.73,-567.338C1811.97,-568.327 2279.14,-569.098 2333.4,-532 2353.11,-518.526 2355.4,-506.872 2355.4,-483 2355.4,-483 2355.4,-483 2355.4,-309 2355.4,-288.511 2340.43,-271.79 2324.34,-259.733"/>
<ellipse fill="none" stroke="#9efab9" cx="1674.45" cy="-567.305" rx="4" ry="4"/>
<polygon fill="#9efab9" stroke="#9efab9" points="2324.11,-259.569 2318.47,-250.164 2320,-256.714 2315.9,-253.858 2315.9,-253.858 2315.9,-253.858 2320,-256.714 2313.33,-257.552 2324.11,-259.569 2324.11,-259.569"/>
</g>
<!-- User&#45;&gt;RecommendedUserResource -->
<g id="edge71" class="edge"><title>User&#45;&gt;RecommendedUserResource</title>
<path fill="none" stroke="#ac73c6" d="M1680.45,-566.286C1817.35,-563.498 2290.05,-552.468 2354.4,-532 2393.06,-519.705 2431.4,-523.564 2431.4,-483 2431.4,-483 2431.4,-483 2431.4,-236 2431.4,-213.153 2413.4,-196.626 2393.32,-185.298"/>
<polygon fill="#ac73c6" stroke="#ac73c6" points="1680.45,-566.286 1670.36,-561.988 1675.45,-566.387 1670.45,-566.488 1670.45,-566.488 1670.45,-566.488 1675.45,-566.387 1670.54,-570.987 1680.45,-566.286 1680.45,-566.286"/>
<polygon fill="#ac73c6" stroke="#ac73c6" points="2393.19,-185.23 2386.4,-176.617 2388.76,-182.918 2384.32,-180.607 2384.32,-180.607 2384.32,-180.607 2388.76,-182.918 2382.24,-184.597 2393.19,-185.23 2393.19,-185.23"/>
</g>
<!-- User&#45;&gt;User -->
<g id="edge73" class="edge"><title>User&#45;&gt;User</title>
<path fill="none" stroke="#c81347" d="M1680.34,-570.972C1685.19,-570.463 1688.4,-569.472 1688.4,-568 1688.4,-566.528 1685.19,-565.537 1680.34,-565.028"/>
<polygon fill="#c81347" stroke="#c81347" points="1680.19,-570.978 1670.02,-566.871 1675.19,-571.173 1670.19,-571.368 1670.19,-571.368 1670.19,-571.368 1675.19,-571.173 1670.37,-575.864 1680.19,-570.978 1680.19,-570.978"/>
<polygon fill="#c81347" stroke="#c81347" points="1680.19,-565.022 1670.37,-560.136 1675.19,-564.827 1670.19,-564.632 1670.19,-564.632 1670.19,-564.632 1675.19,-564.827 1670.02,-569.129 1680.19,-565.022 1680.19,-565.022"/>
<text text-anchor="middle" x="1711.33" y="-563.8" font-family="Times,serif" font-size="14.00">teachers</text>
</g>
<!-- User&#45;&gt;User -->
<g id="edge75" class="edge"><title>User&#45;&gt;User</title>
<path fill="none" stroke="#48d43c" d="M1679.78,-574.236C1705.82,-575.82 1734.26,-573.742 1734.26,-568 1734.26,-562.258 1705.82,-560.18 1679.78,-561.764"/>
<polygon fill="#48d43c" stroke="#48d43c" points="1679.58,-574.22 1669.98,-568.926 1674.6,-573.816 1669.61,-573.411 1669.61,-573.411 1669.61,-573.411 1674.6,-573.816 1669.25,-577.897 1679.58,-574.22 1679.58,-574.22"/>
<polygon fill="#48d43c" stroke="#48d43c" points="1679.58,-561.78 1669.25,-558.103 1674.6,-562.184 1669.61,-562.589 1669.61,-562.589 1669.61,-562.589 1674.6,-562.184 1669.98,-567.074 1679.58,-561.78 1679.58,-561.78"/>
<text text-anchor="middle" x="1756.41" y="-563.8" font-family="Times,serif" font-size="14.00">coaches</text>
</g>
<!-- UserAnswer -->
<g id="node36" class="node"><title>UserAnswer</title>
<ellipse fill="none" stroke="black" cx="1493.4" cy="-482" rx="54.123" ry="18"/>
<text text-anchor="middle" x="1493.4" y="-477.8" font-family="Times,serif" font-size="14.00">UserAnswer</text>
</g>
<!-- User&#45;&gt;UserAnswer -->
<g id="edge77" class="edge"><title>User&#45;&gt;UserAnswer</title>
<path fill="none" stroke="#a18322" d="M1613.01,-554.563C1598.61,-548.323 1581.33,-540.33 1566.4,-532 1551.78,-523.843 1536.29,-513.68 1523.35,-504.728"/>
<ellipse fill="none" stroke="#a18322" cx="1617" cy="-556.268" rx="4.00001" ry="4.00001"/>
<polygon fill="#a18322" stroke="#a18322" points="1523.04,-504.506 1517.43,-495.08 1518.94,-501.635 1514.85,-498.764 1514.85,-498.764 1514.85,-498.764 1518.94,-501.635 1512.26,-502.448 1523.04,-504.506 1523.04,-504.506"/>
</g>
<!-- User&#45;&gt;UserRoleNode -->
<g id="edge65" class="edge"><title>User&#45;&gt;UserRoleNode</title>
<path fill="none" stroke="#a74dbf" d="M1679.06,-566.982C1743.94,-566.221 1877.8,-561.062 1912.4,-532 1935.79,-512.353 1926.46,-494.276 1922.4,-464 1911.86,-385.457 1933.7,-345.673 1875.4,-292 1844.14,-263.22 1731.55,-249.061 1656.21,-242.661"/>
<ellipse fill="none" stroke="#a74dbf" cx="1674.75" cy="-567.022" rx="4" ry="4"/>
<polygon fill="#a74dbf" stroke="#a74dbf" points="1655.8,-242.628 1646.2,-237.324 1650.82,-242.219 1645.83,-241.809 1645.83,-241.809 1645.83,-241.809 1650.82,-242.219 1645.47,-246.294 1655.8,-242.628 1655.8,-242.628"/>
</g>
<!-- User&#45;&gt;ActsAsTaggableOn::Tagging -->
<g id="edge79" class="edge"><title>User&#45;&gt;ActsAsTaggableOn::Tagging</title>
<path fill="none" stroke="#4ce0b7" d="M1608.4,-566.761C1539.03,-565.676 1387.11,-560.063 1344.4,-532 1307.49,-507.749 1306.09,-488.65 1294.63,-446 1282.67,-401.452 1352.9,-380.607 1322.4,-346 1311.29,-333.389 1230.65,-324.144 1159.39,-318.333"/>
<ellipse fill="none" stroke="#4ce0b7" cx="1612.44" cy="-566.817" rx="4" ry="4"/>
<polygon fill="#4ce0b7" stroke="#4ce0b7" points="1159.37,-318.332 1149.76,-313.05 1154.39,-317.934 1149.4,-317.536 1149.4,-317.536 1149.4,-317.536 1154.39,-317.934 1149.05,-322.022 1159.37,-318.332 1159.37,-318.332"/>
<text text-anchor="middle" x="1340.28" y="-434.8" font-family="Times,serif" font-size="14.00">owned_taggings</text>
</g>
<!-- User&#45;&gt;ActsAsTaggableOn::Tag -->
<g id="edge80" class="edge"><title>User&#45;&gt;ActsAsTaggableOn::Tag</title>
<path fill="none" stroke="#5d2775" d="M1606.35,-565.217C1459.63,-558.003 919.159,-529.929 750.4,-500 525.704,-460.15 394.017,-542.038 256.4,-360 252.648,-355.037 252.445,-350.803 256.4,-346 259.793,-341.879 309.283,-332.388 355.362,-324.327"/>
<polygon fill="#5d2775" stroke="#5d2775" points="1606.62,-565.231 1616.39,-570.214 1611.62,-565.475 1616.61,-565.719 1616.61,-565.719 1616.61,-565.719 1611.62,-565.475 1616.83,-561.225 1606.62,-565.231 1606.62,-565.231"/>
<polygon fill="#5d2775" stroke="#5d2775" points="355.578,-324.29 366.201,-327.012 360.505,-323.434 365.431,-322.579 365.431,-322.579 365.431,-322.579 360.505,-323.434 364.661,-318.145 355.578,-324.29 355.578,-324.29"/>
<text text-anchor="middle" x="379.838" y="-434.8" font-family="Times,serif" font-size="14.00">owned_tags</text>
</g>
<!-- UserRoleNode&#45;&gt;OnboardingStatus -->
<g id="edge81" class="edge"><title>UserRoleNode&#45;&gt;OnboardingStatus</title>
<path fill="none" stroke="#f9a3ba" d="M1642.34,-223.859C1701.38,-211.271 1793.47,-191.636 1854.85,-178.55"/>
<ellipse fill="none" stroke="#f9a3ba" cx="1638.09" cy="-224.766" rx="4.00001" ry="4.00001"/>
<polygon fill="#f9a3ba" stroke="#f9a3ba" points="1855.02,-178.514 1865.74,-180.829 1859.91,-177.471 1864.8,-176.428 1864.8,-176.428 1864.8,-176.428 1859.91,-177.471 1863.86,-172.027 1855.02,-178.514 1855.02,-178.514"/>
</g>
</g>
</svg>
